<mxfile host="app.diagrams.net" modified="2023-09-18T04:45:32.963Z" agent="Mozilla/5.0 (Macintosh; Intel Mac OS X 10_15_7) AppleWebKit/537.36 (KHTML, like Gecko) Chrome/116.0.0.0 Safari/537.36" etag="l5qSUtSnkCoYoWayj3rw" version="21.7.5" type="device">
  <diagram name="Page-1" id="rVVtpTK7hcYavb-49eYR">
    <mxGraphModel dx="954" dy="1811" grid="1" gridSize="10" guides="1" tooltips="1" connect="1" arrows="1" fold="1" page="1" pageScale="1" pageWidth="1654" pageHeight="1169" math="0" shadow="0">
      <root>
        <mxCell id="0" />
        <mxCell id="1" parent="0" />
        <mxCell id="0SuDh5b31dQOesD8BtSc-278" value="" style="group" parent="1" vertex="1" connectable="0">
          <mxGeometry x="156.5" y="-20" width="1103.5" height="1170" as="geometry" />
        </mxCell>
        <mxCell id="0SuDh5b31dQOesD8BtSc-15" value="" style="shape=image;html=1;verticalAlign=top;verticalLabelPosition=bottom;labelBackgroundColor=#ffffff;imageAspect=0;aspect=fixed;image=https://cdn4.iconfinder.com/data/icons/file-extensions-1/64/pdfs-128.png" parent="0SuDh5b31dQOesD8BtSc-278" vertex="1">
          <mxGeometry x="124.5" y="210" width="51.5" height="51.5" as="geometry" />
        </mxCell>
        <mxCell id="0SuDh5b31dQOesD8BtSc-97" value="" style="group" parent="0SuDh5b31dQOesD8BtSc-278" vertex="1" connectable="0">
          <mxGeometry x="270" y="170" width="130" height="160" as="geometry" />
        </mxCell>
        <mxCell id="0SuDh5b31dQOesD8BtSc-1" style="vsdxID=48;fillColor=none;gradientColor=none;strokeColor=none;spacingTop=-3;spacingBottom=-3;spacingLeft=-3;spacingRight=-3;points=[];labelBackgroundColor=none;rounded=0;html=1;whiteSpace=wrap;" parent="0SuDh5b31dQOesD8BtSc-97" vertex="1">
          <mxGeometry width="130" height="123.30275229357798" as="geometry" />
        </mxCell>
        <mxCell id="0SuDh5b31dQOesD8BtSc-2" style="vsdxID=49;fillColor=none;gradientColor=none;strokeColor=none;spacingTop=-3;spacingBottom=-3;spacingLeft=-3;spacingRight=-3;points=[];labelBackgroundColor=none;rounded=0;html=1;whiteSpace=wrap;" parent="0SuDh5b31dQOesD8BtSc-1" vertex="1">
          <mxGeometry width="130" height="123.30275229357798" as="geometry" />
        </mxCell>
        <mxCell id="0SuDh5b31dQOesD8BtSc-3" style="vsdxID=50;fillColor=#FFFFFF;gradientColor=none;shape=stencil(lZPdDoIwDIWfZrdLWUHCNeJ7GEVZRCATFN/eYYfsB028a7tztq/NyjC/VfuuZAJuvWov5UMe+4rhlgkhm6pUstcRw4JhfmpVeVbt0Bwp7/aTcoqu7X26YSRfwjGZTAKeVMgynm7elR3pD4MiQ0QCwWM0jsi3wCioBEZh0izlKIwCXYVJs5jH9qu1bCxKcBA/zF8IwcVbgGc6qwWXd4azpuLgrsJp9I07Q/hFp2eRpC4huHgReOOzOkBf4hOvIi5yH/kL5GIIqUcRNuKTjxjOxkNfBQ2+43/q4PP+q9fBsiknWde0aPa5v1m6RFuJxQs=);strokeColor=none;spacingTop=-3;spacingBottom=-3;spacingLeft=-3;spacingRight=-3;points=[];labelBackgroundColor=none;rounded=0;html=1;whiteSpace=wrap;" parent="0SuDh5b31dQOesD8BtSc-2" vertex="1">
          <mxGeometry width="126.90476190476191" height="120.36697247706422" as="geometry" />
        </mxCell>
        <mxCell id="0SuDh5b31dQOesD8BtSc-4" style="vsdxID=51;fillColor=#FFFFFF;gradientColor=none;shape=stencil(lZXRdoIwDIafprc9aUOBXjv3Hp6JgzMGHsQN336wVtqmCHpXwx/58iehDHeX8nAumIRL37VfxW917EuGb0zKqimLrurHE8M9w92p7YrPrr02R/P7fJiU0+m7/Zn+YTB5GjmqKUvCzUQkx/w/8G70H9fOJAiboXiGNkOQFBikFWUctRXZUMLBvmjAWGRDKU/Qf3ldNT6slzDj52KV1ktxBWhFcL2aXAV5Sng9r5CqFoHHckTIS/WUd3QpIbgZT2WI6/y+ybgmjESOX2WPYb2E5WZQVi9BRD2WUT0R/ICRS5R9eQw2Z/ZV/dZOwAsthnXLchVaBqFfQM2iQwihU+sLAwHZ5rIAo5MnEjp5M7+NCAC20c275FFzVLjTRL6w0YJ46BgolLfNcylINc+th9M/tx1a8yyl38m5m3eulGsRohI7Fz46626uje54cBfBqaprc4/4z+nFMYbMpYP7Pw==);strokeColor=none;spacingTop=-3;spacingBottom=-3;spacingLeft=-3;spacingRight=-3;points=[];labelBackgroundColor=none;rounded=0;html=1;whiteSpace=wrap;" parent="0SuDh5b31dQOesD8BtSc-2" vertex="1">
          <mxGeometry width="130" height="123.30275229357798" as="geometry" />
        </mxCell>
        <mxCell id="0SuDh5b31dQOesD8BtSc-5" style="vsdxID=52;fillColor=none;gradientColor=none;strokeColor=none;spacingTop=-3;spacingBottom=-3;spacingLeft=-3;spacingRight=-3;points=[];labelBackgroundColor=none;rounded=0;html=1;whiteSpace=wrap;" parent="0SuDh5b31dQOesD8BtSc-1" vertex="1">
          <mxGeometry x="1.5476190476190477" y="1.4678899082568808" width="123.81" height="117.43119266055047" as="geometry" />
        </mxCell>
        <mxCell id="0SuDh5b31dQOesD8BtSc-6" style="vsdxID=53;fillColor=#FFFFFF;gradientColor=none;shape=stencil(nVbLctswDPwaXTEkAD50TpP/yEycWBPXzjhO2vx96KqSBcpaV71J1C6weIqN3L1vH982Dbv30/HwuvnVPZ22jfxomLv9dnPsTuWpkftG7p4Px83L8fCxf+rf3x7PyPPTz8Pn2cLvnte2lOTMYvfVn7g/bw89eNftJ2D3f0DvAHT4+E/gVWpvgG0ekqcYDbiceF62nhw5az22pHmZEDNJawmJcgAe/IygkHCxNxKKCQ8IOiMoJggxWwJTTIDgKeRaklMoqSKEjAljiCNBKSFJcw9F5DI+B3LWQSlMK6BuTGwJWUmBouL/r+BJGRzwEMKQkpHgKMU1klLCMeShlydBR+RBr3R3AEGvH7jbBDvSksnb7pZEIASJFGySJFALQpAyPjZJ5URAVov/mlC6FzS3CCWbVU7EoFnF1YRyggjckrdZ5UwRrIAiINgVwJFasPeKgJogkFDs2WlgN2i8jnekWitSXAYbsgplXGexq14TeVA2XwKsBQH7s4C9kgf4i/dJ34EEXcKbDAIKWN2MMLb69QytHbWbeDvK7Kn6i4xLfGnfVetrLMnSjudZxWAL6TAkk4Xqwdj4SGIjzkwZeFgb8m18ebjcAp+73a6/RE6/17fGctTfOOX+Gw==);strokeColor=none;spacingTop=-3;spacingBottom=-3;spacingLeft=-3;spacingRight=-3;points=[];labelBackgroundColor=none;rounded=0;html=1;whiteSpace=wrap;" parent="0SuDh5b31dQOesD8BtSc-5" vertex="1">
          <mxGeometry x="4.642857142857143" y="4.4036697247706424" width="112.97619047619048" height="107.1559633027523" as="geometry" />
        </mxCell>
        <mxCell id="0SuDh5b31dQOesD8BtSc-7" style="vsdxID=54;fillColor=#2d5967;gradientColor=none;shape=stencil(lZTbEoIgEEC/hlcHWa14tvoPpyyZTB3U0r9PIpOFwvGNywEPu+sSSJo8rTPCaNPK6pY9xbnNCewJY6LMMynacUTgQCC5VDK7yqorz3pep4pUo3v1UDf0+hyPgzhUpxgd9Ap9z44aLkRpwFHAov/sqZP65lBvhsE2/tChidOeoenAbL4HDMD38/F/OYrM+ManRrEX3003f90M+WmFUmxnRAMw8tNvjPR2gxwt3JbkO2w5C9hGk6L5DrAZmDU8UZz53zF3JLmTZSOPzHoJTnwPbg3CYhEuVCwub6di/TXk5mgtj+tu4fdZBftNFvFxMPeAiygK3ULMfbtnjEu638DhBQ==);strokeColor=none;spacingTop=-3;spacingBottom=-3;spacingLeft=-3;spacingRight=-3;points=[];labelBackgroundColor=none;rounded=0;html=1;whiteSpace=wrap;" parent="0SuDh5b31dQOesD8BtSc-5" vertex="1">
          <mxGeometry width="123.81" height="117.43" as="geometry" />
        </mxCell>
        <mxCell id="0SuDh5b31dQOesD8BtSc-8" style="vsdxID=55;fillColor=#2d5967;gradientColor=none;shape=stencil(lZTdbsMgDIWfhlsLMFD7uuveo1LTJVqWVGm6rW9fZ4itpANtd8acz5jDj8Ltud2fGmX1eZ7G1+ajO8ytwidlbTe0zdTNEincKdwex6l5mcbLcIjj035RLtHb+L5U+IxcMOA2C2X1NWZIgwlfmecI9N1wBzAQZnpLYMpynWmRQNuy+LEZo3VZniaTWHCmslwW9zYDKrVlV4EzMQNXWn8sbr6d+n0BBm/WRnIFQAcudx4RqLZfBvRr+8mVAUeAIW+JYePLgOd0nAlwGhxXgPzAnHhQU7tkeQIk4+v9rC6nZCr6IH7kDnnpv3KbyYDJgWCBKsC/n9cfAAl+XvOx6/v4GdzPr1+/pOLPgbsb);strokeColor=none;spacingTop=-3;spacingBottom=-3;spacingLeft=-3;spacingRight=-3;points=[];labelBackgroundColor=none;rounded=0;html=1;whiteSpace=wrap;" parent="0SuDh5b31dQOesD8BtSc-5" vertex="1">
          <mxGeometry x="65" y="61.65137614678899" width="37.142857142857146" height="35.22935779816514" as="geometry" />
        </mxCell>
        <mxCell id="0SuDh5b31dQOesD8BtSc-9" style="vsdxID=56;fillColor=#2d5967;gradientColor=none;shape=stencil(lVRJbsMwDHyNrgQpaj2n6T8CxKmFunbguNvvK1dIa7axAt9IaYYccZHi3aU9nBul8TKNw3Pzno5Tq/hBaZ36thnTlC3Fe8W70zA2T+Pw2h+Lfz7MyNl6Gd7mCB+FR4gzR+Nn8R1BDN8njwXepX4B5wBWCwKug2XkTEW9Ds6JjReEq7SbcE/AJOARASvKKYKT8dkDxS1PpQBUyWDle3UEb9fRBq+FXhQomArBQhR4w1BVA0HKNwG8qxAiBJaCfkp2uwUaSBKsBqwQHAPJnuWmU0WSyyMjMzgHVBmiLClaQchzUpMU8ri7LQsQ/7XtToaNC3YXno3fXT6lritfwfL+7+7no/Jv8P4L);strokeColor=none;spacingTop=-3;spacingBottom=-3;spacingLeft=-3;spacingRight=-3;points=[];labelBackgroundColor=none;rounded=0;html=1;whiteSpace=wrap;" parent="0SuDh5b31dQOesD8BtSc-5" vertex="1">
          <mxGeometry x="20.11904761904762" y="19.08256880733945" width="37.142857142857146" height="35.22935779816514" as="geometry" />
        </mxCell>
        <mxCell id="0SuDh5b31dQOesD8BtSc-10" style="vsdxID=57;fillColor=#FFFFFF;gradientColor=none;shape=stencil(UzV2Ls5ILEhVNTIoLinKz04tz0wpyVA1dlE1MsrMy0gtyiwBslSNXVWNndPyi1LTi/JL81Ig/IJEkEoQKze/DGRCBUSfqZmeIUiTkUElRMDQwADMd4OozsnMQ1INk4QphuvGqtrEWM8SRTkek1HNhevEqpY0NxNSDWQgAictMycHErbI8uiBCRSCRISxKwA=);strokeColor=none;spacingTop=-3;spacingBottom=-3;spacingLeft=-3;spacingRight=-3;points=[];labelBackgroundColor=none;rounded=0;html=1;whiteSpace=wrap;" parent="0SuDh5b31dQOesD8BtSc-5" vertex="1">
          <mxGeometry x="82.02380952380953" y="26.422018348623855" width="12.380952380952381" height="11.743119266055047" as="geometry" />
        </mxCell>
        <mxCell id="0SuDh5b31dQOesD8BtSc-11" style="vsdxID=58;fillColor=#FFFFFF;gradientColor=none;shape=stencil(lZHNDoMgEISfZq9mAW24W/seJmIhpWCQ/r290D0oTWPT2+zyzUAGEO2s+0kBxzkGf1EPM0QN4gicG6dVMDEpEB2IdvRBnYO/uYHmqc9kVld/zwlP8mF2cHzRJJtKsvfmRLA1bgOzupJ1YWCIOziW6av9K54uZ4fCsJP917t/wEms9YzGWmp3e/5ZZ1rRV4huAQ==);strokeColor=none;spacingTop=-3;spacingBottom=-3;spacingLeft=-3;spacingRight=-3;points=[];labelBackgroundColor=none;rounded=0;html=1;whiteSpace=wrap;" parent="0SuDh5b31dQOesD8BtSc-5" vertex="1">
          <mxGeometry x="37.142857142857146" y="35.22935779816514" width="47.976190476190474" height="45.50458715596331" as="geometry" />
        </mxCell>
        <mxCell id="0SuDh5b31dQOesD8BtSc-12" style="vsdxID=59;fillColor=#FFFFFF;gradientColor=none;shape=stencil(UzV2Ls5ILEhVNTIoLinKz04tz0wpyVA1dlE1MsrMy0gtyiwBslSNXVWNndPyi1LTi/JL81Ig/IJEkEoQKze/DGRCBUSfoYEBSI+RQSWEb2ahZ2kOFnGDKM/JzENSbmyoZ2CKosEAt2JUk2E2YVVKojMIKgcyED5Oy8zJgQQYsjx6CAGFIKFr7AoA);strokeColor=none;spacingTop=-3;spacingBottom=-3;spacingLeft=-3;spacingRight=-3;points=[];labelBackgroundColor=none;rounded=0;html=1;whiteSpace=wrap;" parent="0SuDh5b31dQOesD8BtSc-5" vertex="1">
          <mxGeometry x="30.952380952380953" y="77.79816513761469" width="7.738095238095238" height="7.339449541284404" as="geometry" />
        </mxCell>
        <mxCell id="0SuDh5b31dQOesD8BtSc-13" style="vsdxID=60;fillColor=#2d5967;gradientColor=none;shape=stencil(lVTbboMwDP2avFq+JCR57rr/qFQ60BhUlN3+frBobV2NiLw5zjmOfU5kI7tLczjXhvEyjcNr/dkep8bIk2Fu+6Ye22mOjOyN7E7DWL+Mw3t/TOfzYUEu0dvwsVT4SjyugOLCYvxOmciA1W/mORG6tr8jEKKCUwB26/BAIE4RcB3sIVqF9QKW1vEPnWCmdPGcGwhayYhgQ5E0AiKKwA5sRh0LTPqBCtiXaB+BZB1fPMEGgtaoimC1w0yAmZZ8AOcVQRCoyLbA4DKqkv9zdeOnK55hA0GrRAKoZ5hliBmjb/WuQ1cQM76BY/0vrkb+r1FpQxsIc3DbSae269JKu79/3GFzKu0/2f8A);strokeColor=none;spacingTop=-3;spacingBottom=-3;spacingLeft=-3;spacingRight=-3;points=[];labelBackgroundColor=none;rounded=0;html=1;whiteSpace=wrap;" parent="0SuDh5b31dQOesD8BtSc-5" vertex="1">
          <mxGeometry x="23.214285714285715" y="19.08256880733945" width="77.38095238095238" height="73.39449541284404" as="geometry" />
        </mxCell>
        <mxCell id="0SuDh5b31dQOesD8BtSc-14" value="&lt;div style=&quot;font-size: 1px&quot;&gt;&lt;p style=&quot;align:center;margin-left:0;margin-right:0;margin-top:0px;margin-bottom:0px;text-indent:0;valign:middle;direction:ltr;&quot;&gt;&lt;font style=&quot;font-size:16.93px;font-family:Oracle Sans;color:#000000;direction:ltr;letter-spacing:0px;line-height:120%;opacity:1&quot;&gt;DocuAI Portal (Oracle Apex)&lt;br&gt;&lt;/font&gt;&lt;/p&gt;&lt;/div&gt;" style="verticalAlign=middle;align=center;vsdxID=62;fillColor=none;gradientColor=none;shape=stencil(nZBLDoAgDERP0z3SIyjew0SURgSD+Lu9kMZoXLhwN9O+tukAlrNpJg1SzDH4QW/URgNYgZTkjA4UkwJUgGXng+6DX1zLfmoymdXo17xh5zmRJ6Q42BWCfc2oJfdAr+Yv+AP9Cb7OJ3H/2JG1HNGz/84klThPVCc=);strokeColor=none;spacingTop=-3;spacingBottom=-3;spacingLeft=-3;spacingRight=-3;points=[];labelBackgroundColor=none;rounded=0;html=1;whiteSpace=wrap;" parent="0SuDh5b31dQOesD8BtSc-97" vertex="1">
          <mxGeometry y="130.64" width="130" height="29.36" as="geometry" />
        </mxCell>
        <mxCell id="0SuDh5b31dQOesD8BtSc-257" style="edgeStyle=orthogonalEdgeStyle;rounded=0;orthogonalLoop=1;jettySize=auto;html=1;entryX=0;entryY=0.5;entryDx=0;entryDy=0;exitX=1.013;exitY=0.515;exitDx=0;exitDy=0;exitPerimeter=0;" parent="0SuDh5b31dQOesD8BtSc-278" source="0SuDh5b31dQOesD8BtSc-7" target="0SuDh5b31dQOesD8BtSc-79" edge="1">
          <mxGeometry relative="1" as="geometry" />
        </mxCell>
        <mxCell id="0SuDh5b31dQOesD8BtSc-267" value="" style="endArrow=classic;startArrow=classic;html=1;rounded=0;entryX=1.019;entryY=0.203;entryDx=0;entryDy=0;entryPerimeter=0;exitX=0.009;exitY=0.53;exitDx=0;exitDy=0;exitPerimeter=0;" parent="0SuDh5b31dQOesD8BtSc-278" source="E3ZB4-CnnIWMfGLpdKub-27" target="0SuDh5b31dQOesD8BtSc-2" edge="1">
          <mxGeometry width="50" height="50" relative="1" as="geometry">
            <mxPoint x="870.5299999999997" y="154.99751937984502" as="sourcePoint" />
            <mxPoint x="470" y="540" as="targetPoint" />
          </mxGeometry>
        </mxCell>
        <mxCell id="0SuDh5b31dQOesD8BtSc-270" value="" style="endArrow=classic;html=1;rounded=0;exitX=1;exitY=0.5;exitDx=0;exitDy=0;entryX=-0.012;entryY=0.558;entryDx=0;entryDy=0;entryPerimeter=0;" parent="0SuDh5b31dQOesD8BtSc-278" source="0SuDh5b31dQOesD8BtSc-15" target="0SuDh5b31dQOesD8BtSc-5" edge="1">
          <mxGeometry width="50" height="50" relative="1" as="geometry">
            <mxPoint x="420" y="420" as="sourcePoint" />
            <mxPoint x="470" y="370" as="targetPoint" />
          </mxGeometry>
        </mxCell>
        <mxCell id="E3ZB4-CnnIWMfGLpdKub-6" value="" style="group" parent="0SuDh5b31dQOesD8BtSc-278" vertex="1" connectable="0">
          <mxGeometry x="520" y="240" width="460" height="515.5" as="geometry" />
        </mxCell>
        <mxCell id="0SuDh5b31dQOesD8BtSc-99" value="" style="group;labelBorderColor=#0000CC;strokeColor=none;" parent="E3ZB4-CnnIWMfGLpdKub-6" vertex="1" connectable="0">
          <mxGeometry x="20" width="220" height="90" as="geometry" />
        </mxCell>
        <mxCell id="0SuDh5b31dQOesD8BtSc-79" value="" style="rounded=1;whiteSpace=wrap;html=1;labelBorderColor=default;strokeColor=#2e5967;strokeWidth=4;fillColor=default;" parent="0SuDh5b31dQOesD8BtSc-99" vertex="1">
          <mxGeometry width="216" height="60" as="geometry" />
        </mxCell>
        <mxCell id="0SuDh5b31dQOesD8BtSc-87" value="" style="shape=image;html=1;verticalAlign=top;verticalLabelPosition=bottom;labelBackgroundColor=#ffffff;imageAspect=0;aspect=fixed;image=https://cdn1.iconfinder.com/data/icons/bootstrap-vol-3/16/filetype-jpg-128.png" parent="0SuDh5b31dQOesD8BtSc-99" vertex="1">
          <mxGeometry x="6" y="10" width="40" height="40" as="geometry" />
        </mxCell>
        <mxCell id="0SuDh5b31dQOesD8BtSc-91" value="" style="shape=image;html=1;verticalAlign=top;verticalLabelPosition=bottom;labelBackgroundColor=#ffffff;imageAspect=0;aspect=fixed;image=https://cdn1.iconfinder.com/data/icons/bootstrap-vol-3/16/filetype-jpg-128.png" parent="0SuDh5b31dQOesD8BtSc-99" vertex="1">
          <mxGeometry x="46" y="10" width="40" height="40" as="geometry" />
        </mxCell>
        <mxCell id="0SuDh5b31dQOesD8BtSc-92" value="" style="shape=image;html=1;verticalAlign=top;verticalLabelPosition=bottom;labelBackgroundColor=#ffffff;imageAspect=0;aspect=fixed;image=https://cdn1.iconfinder.com/data/icons/bootstrap-vol-3/16/filetype-jpg-128.png" parent="0SuDh5b31dQOesD8BtSc-99" vertex="1">
          <mxGeometry x="86" y="10" width="40" height="40" as="geometry" />
        </mxCell>
        <mxCell id="0SuDh5b31dQOesD8BtSc-96" value="&lt;div style=&quot;font-size: 1px&quot;&gt;&lt;p style=&quot;align:center;margin-left:0;margin-right:0;margin-top:0px;margin-bottom:0px;text-indent:0;valign:middle;direction:ltr;&quot;&gt;&lt;font style=&quot;font-size:16.93px;font-family:Oracle Sans;color:#000000;direction:ltr;letter-spacing:0px;line-height:120%;opacity:1&quot;&gt;Documents / Images&lt;br&gt;&lt;/font&gt;&lt;/p&gt;&lt;/div&gt;" style="verticalAlign=middle;align=center;vsdxID=62;fillColor=none;gradientColor=none;shape=stencil(nZBLDoAgDERP0z3SIyjew0SURgSD+Lu9kMZoXLhwN9O+tukAlrNpJg1SzDH4QW/URgNYgZTkjA4UkwJUgGXng+6DX1zLfmoymdXo17xh5zmRJ6Q42BWCfc2oJfdAr+Yv+AP9Cb7OJ3H/2JG1HNGz/84klThPVCc=);strokeColor=none;spacingTop=-3;spacingBottom=-3;spacingLeft=-3;spacingRight=-3;points=[];labelBackgroundColor=none;rounded=0;html=1;whiteSpace=wrap;" parent="0SuDh5b31dQOesD8BtSc-99" vertex="1">
          <mxGeometry y="70" width="220" height="20" as="geometry" />
        </mxCell>
        <mxCell id="E3ZB4-CnnIWMfGLpdKub-11" value="" style="shape=image;html=1;verticalAlign=top;verticalLabelPosition=bottom;labelBackgroundColor=#ffffff;imageAspect=0;aspect=fixed;image=https://cdn1.iconfinder.com/data/icons/bootstrap-vol-3/16/filetype-pdf-128.png" parent="0SuDh5b31dQOesD8BtSc-99" vertex="1">
          <mxGeometry x="126" y="10" width="40" height="40" as="geometry" />
        </mxCell>
        <mxCell id="E3ZB4-CnnIWMfGLpdKub-12" value="" style="shape=image;html=1;verticalAlign=top;verticalLabelPosition=bottom;labelBackgroundColor=#ffffff;imageAspect=0;aspect=fixed;image=https://cdn1.iconfinder.com/data/icons/bootstrap-vol-3/16/filetype-pdf-128.png" parent="0SuDh5b31dQOesD8BtSc-99" vertex="1">
          <mxGeometry x="170" y="10" width="40" height="40" as="geometry" />
        </mxCell>
        <mxCell id="0SuDh5b31dQOesD8BtSc-117" value="" style="group" parent="E3ZB4-CnnIWMfGLpdKub-6" vertex="1" connectable="0">
          <mxGeometry y="165.5" width="460" height="350" as="geometry" />
        </mxCell>
        <mxCell id="E3ZB4-CnnIWMfGLpdKub-15" style="edgeStyle=orthogonalEdgeStyle;rounded=0;orthogonalLoop=1;jettySize=auto;html=1;exitX=0;exitY=0.5;exitDx=0;exitDy=0;" parent="0SuDh5b31dQOesD8BtSc-117" source="E3ZB4-CnnIWMfGLpdKub-14" edge="1">
          <mxGeometry relative="1" as="geometry">
            <mxPoint x="-100" y="162.5" as="targetPoint" />
          </mxGeometry>
        </mxCell>
        <mxCell id="E3ZB4-CnnIWMfGLpdKub-14" value="" style="rounded=1;whiteSpace=wrap;html=1;strokeColor=#2e5967;fillColor=#FFFFFF;fontColor=#312D2A;fontFamily=Oracle Sans;labelBackgroundColor=none;align=center;arcSize=10;strokeWidth=3;" parent="0SuDh5b31dQOesD8BtSc-117" vertex="1">
          <mxGeometry x="-92.5" y="-25.5" width="552.5" height="375.5" as="geometry" />
        </mxCell>
        <mxCell id="0SuDh5b31dQOesD8BtSc-95" value="" style="rounded=1;whiteSpace=wrap;html=1;labelBorderColor=#2e5967;strokeWidth=4;strokeColor=#2e5967;" parent="0SuDh5b31dQOesD8BtSc-117" vertex="1">
          <mxGeometry width="265" height="110" as="geometry" />
        </mxCell>
        <mxCell id="0SuDh5b31dQOesD8BtSc-104" value="" style="sketch=0;pointerEvents=1;shadow=0;dashed=0;html=1;strokeColor=none;fillColor=#505050;labelPosition=center;verticalLabelPosition=bottom;verticalAlign=top;outlineConnect=0;align=center;shape=mxgraph.office.concepts.document;" parent="0SuDh5b31dQOesD8BtSc-117" vertex="1">
          <mxGeometry x="30" y="27" width="46" height="56" as="geometry" />
        </mxCell>
        <mxCell id="0SuDh5b31dQOesD8BtSc-105" value="" style="sketch=0;pointerEvents=1;shadow=0;dashed=0;html=1;strokeColor=none;fillColor=#505050;labelPosition=center;verticalLabelPosition=bottom;verticalAlign=top;outlineConnect=0;align=center;shape=mxgraph.office.concepts.document;" parent="0SuDh5b31dQOesD8BtSc-117" vertex="1">
          <mxGeometry x="109.5" y="27" width="46" height="56" as="geometry" />
        </mxCell>
        <mxCell id="0SuDh5b31dQOesD8BtSc-106" value="" style="sketch=0;pointerEvents=1;shadow=0;dashed=0;html=1;strokeColor=none;fillColor=#505050;labelPosition=center;verticalLabelPosition=bottom;verticalAlign=top;outlineConnect=0;align=center;shape=mxgraph.office.concepts.document;" parent="0SuDh5b31dQOesD8BtSc-117" vertex="1">
          <mxGeometry x="190" y="27" width="46" height="56" as="geometry" />
        </mxCell>
        <mxCell id="0SuDh5b31dQOesD8BtSc-113" value="&lt;span style=&quot;color: rgb(0, 0, 0); font-family: &amp;quot;Oracle Sans&amp;quot;; font-size: 16.93px; font-style: normal; font-variant-ligatures: normal; font-variant-caps: normal; font-weight: 400; letter-spacing: normal; orphans: 2; text-align: center; text-indent: 0px; text-transform: none; widows: 2; word-spacing: 0px; -webkit-text-stroke-width: 0px; background-color: rgb(251, 251, 251); text-decoration-thickness: initial; text-decoration-style: initial; text-decoration-color: initial; float: none; display: inline !important;&quot;&gt;Format 3&lt;/span&gt;" style="text;whiteSpace=wrap;html=1;" parent="0SuDh5b31dQOesD8BtSc-117" vertex="1">
          <mxGeometry x="180" y="74.5" width="80" height="30" as="geometry" />
        </mxCell>
        <mxCell id="0SuDh5b31dQOesD8BtSc-114" value="&lt;span style=&quot;color: rgb(0, 0, 0); font-family: &amp;quot;Oracle Sans&amp;quot;; font-size: 16.93px; font-style: normal; font-variant-ligatures: normal; font-variant-caps: normal; font-weight: 400; letter-spacing: normal; orphans: 2; text-align: center; text-indent: 0px; text-transform: none; widows: 2; word-spacing: 0px; -webkit-text-stroke-width: 0px; background-color: rgb(251, 251, 251); text-decoration-thickness: initial; text-decoration-style: initial; text-decoration-color: initial; float: none; display: inline !important;&quot;&gt;Format 1&lt;/span&gt;" style="text;whiteSpace=wrap;html=1;" parent="0SuDh5b31dQOesD8BtSc-117" vertex="1">
          <mxGeometry x="18" y="74.5" width="70" height="30" as="geometry" />
        </mxCell>
        <mxCell id="0SuDh5b31dQOesD8BtSc-115" value="&lt;span style=&quot;color: rgb(0, 0, 0); font-family: &amp;quot;Oracle Sans&amp;quot;; font-size: 16.93px; font-style: normal; font-variant-ligatures: normal; font-variant-caps: normal; font-weight: 400; letter-spacing: normal; orphans: 2; text-align: center; text-indent: 0px; text-transform: none; widows: 2; word-spacing: 0px; -webkit-text-stroke-width: 0px; background-color: rgb(251, 251, 251); text-decoration-thickness: initial; text-decoration-style: initial; text-decoration-color: initial; float: none; display: inline !important;&quot;&gt;Format 2&lt;/span&gt;" style="text;whiteSpace=wrap;html=1;" parent="0SuDh5b31dQOesD8BtSc-117" vertex="1">
          <mxGeometry x="100" y="74.5" width="80" height="30" as="geometry" />
        </mxCell>
        <mxCell id="0SuDh5b31dQOesD8BtSc-116" value="&lt;span style=&quot;color: rgb(0, 0, 0); font-family: &amp;quot;Oracle Sans&amp;quot;; font-size: 16.93px; font-style: normal; font-variant-ligatures: normal; font-variant-caps: normal; font-weight: 400; letter-spacing: normal; orphans: 2; text-indent: 0px; text-transform: none; widows: 2; word-spacing: 0px; -webkit-text-stroke-width: 0px; background-color: rgb(251, 251, 251); text-decoration-thickness: initial; text-decoration-style: initial; text-decoration-color: initial; float: none; display: inline !important;&quot;&gt;Document Classification&lt;/span&gt;" style="text;whiteSpace=wrap;html=1;align=center;" parent="0SuDh5b31dQOesD8BtSc-117" vertex="1">
          <mxGeometry x="25" y="114.5" width="230" height="40" as="geometry" />
        </mxCell>
        <mxCell id="E3ZB4-CnnIWMfGLpdKub-16" value="&lt;div style=&quot;font-size: 1px&quot;&gt;&lt;p style=&quot;align:center;margin-left:0;margin-right:0;margin-top:0px;margin-bottom:0px;text-indent:0;valign:middle;direction:ltr;&quot;&gt;&lt;font style=&quot;font-size:16.93px;font-family:Oracle Sans;color:#000000;direction:ltr;letter-spacing:0px;line-height:120%;opacity:1&quot;&gt;Oracle Document Understanding AI Model&lt;br&gt;&lt;/font&gt;&lt;/p&gt;&lt;/div&gt;" style="verticalAlign=middle;align=center;vsdxID=62;fillColor=none;gradientColor=none;shape=stencil(nZBLDoAgDERP0z3SIyjew0SURgSD+Lu9kMZoXLhwN9O+tukAlrNpJg1SzDH4QW/URgNYgZTkjA4UkwJUgGXng+6DX1zLfmoymdXo17xh5zmRJ6Q42BWCfc2oJfdAr+Yv+AP9Cb7OJ3H/2JG1HNGz/84klThPVCc=);strokeColor=none;spacingTop=-3;spacingBottom=-3;spacingLeft=-3;spacingRight=-3;points=[];labelBackgroundColor=none;rounded=0;html=1;whiteSpace=wrap;" parent="0SuDh5b31dQOesD8BtSc-117" vertex="1">
          <mxGeometry x="290" y="147.57" width="130" height="29.36" as="geometry" />
        </mxCell>
        <mxCell id="0SuDh5b31dQOesD8BtSc-145" value="" style="group" parent="E3ZB4-CnnIWMfGLpdKub-6" vertex="1" connectable="0">
          <mxGeometry x="10" y="360" width="80" height="110" as="geometry" />
        </mxCell>
        <mxCell id="0SuDh5b31dQOesD8BtSc-118" style="vsdxID=16;fillColor=none;gradientColor=none;strokeColor=none;spacingTop=-3;spacingBottom=-3;spacingLeft=-3;spacingRight=-3;points=[];labelBackgroundColor=none;rounded=0;html=1;whiteSpace=wrap;" parent="0SuDh5b31dQOesD8BtSc-145" vertex="1">
          <mxGeometry width="80" height="84.53703703703704" as="geometry" />
        </mxCell>
        <mxCell id="0SuDh5b31dQOesD8BtSc-119" style="vsdxID=17;fillColor=none;gradientColor=none;strokeColor=none;spacingTop=-3;spacingBottom=-3;spacingLeft=-3;spacingRight=-3;points=[];labelBackgroundColor=none;rounded=0;html=1;whiteSpace=wrap;" parent="0SuDh5b31dQOesD8BtSc-118" vertex="1">
          <mxGeometry width="80" height="84.53703703703704" as="geometry" />
        </mxCell>
        <mxCell id="0SuDh5b31dQOesD8BtSc-120" style="vsdxID=18;fillColor=#FFFFFF;gradientColor=none;shape=stencil(lZRBcoMwDEVPw1YjSxjkdZrcI9OQwpSGDCFtevtC7UwsIGTYyeJ/8/jYSnhzKffnIiG8dG3zWfxUh65M+C0hqk5l0VZdXyW8TXhzbNrio22up4Nfn/eDcqi+mu9hh5v3kQObDi7CX99xDpD/OztvqKtTbMiARBsEMFswENhMG1Iw7rkhBZFl/fu19d9gwiuAOTjM2II38i0MirB0BGiCgrUiLMWBeU6JCtECyhIhajyClDRdT+M0IGq4KBWFOwsnFqzOEJfoRIBzTYgazyGkmeYjMKIRYxHP56IxY0PYNAexS6gGR1GygzTXsA9NaNgM3EvUTCDP17COz8cYNXaY6aGjafb3sKPDy9MfymPVLC9bELPm2jECsTLcc5y/1qsHx2tDXzzm1LGqaz/m4ufjuda3/Ezk7R8=);strokeColor=none;spacingTop=-3;spacingBottom=-3;spacingLeft=-3;spacingRight=-3;points=[];labelBackgroundColor=none;rounded=0;html=1;whiteSpace=wrap;" parent="0SuDh5b31dQOesD8BtSc-119" vertex="1">
          <mxGeometry width="78.13953488372093" height="82.5" as="geometry" />
        </mxCell>
        <mxCell id="0SuDh5b31dQOesD8BtSc-121" style="vsdxID=19;fillColor=#FFFFFF;gradientColor=none;shape=stencil(lVbbVuMwDPyavOrYkuPLM7D/wVnKNofSckLZLX+Pu3EUW20VeEvVmXg8uqWju/ft49umQ/N+HA8vm3/D03Hb0X2HOOy3m3E45qeOHjq6ez6Mmz/j4WP/NP1+ezwjz0+vh7/nN5wmXnTQxzMLzecUQSD3P/Brwv/+GCeCLQwPHgvDCoo5YQFFQFtAJUSQykEnugSVkAeT6sN3w74WWxHKyRH6oKlNAXrbqqXEV57l1qgS6j2fpekNc+ibgmMA6lV7K8ocSuC88LdKwnwHC1JvlVsSoKtyqQcKjdwVvAHfXi/lBOJtAgZwriU4iL1CIFmeyUAMtwk9JB0u/ab5fLZ7obDdCBhat3NOkFq7KxBxsq3mxkK4Xv1Sa0Vg9UmUcnUfFs/dSdIkEpDrVbw6I36KX5tB5vsJNrphQYwq07plpFVR9JBpjdLnk2mUrba66WTdeepE3bH+ucuJO+hmNhfM9bJD8KKnVgj9UlPc5kErbA/U4nMjKL5lfPCS4LQDcvcJRRHIq5OK2rqxRikyQnAk329JIeQbkPQ0aZvBcandIlxshsDNziXDnGWVGRCj6nIxVJhlUkXF74rAey+hJna2l6XW+xQlZp5dCeyq1LxDvJKJS6krQzUTnLC1GgPI/nCFtqNDWbZKga2MvPywfLA9D7vd9L1X/y8/8HJo+jikhy8=);strokeColor=none;spacingTop=-3;spacingBottom=-3;spacingLeft=-3;spacingRight=-3;points=[];labelBackgroundColor=none;rounded=0;html=1;whiteSpace=wrap;" parent="0SuDh5b31dQOesD8BtSc-119" vertex="1">
          <mxGeometry width="80" height="84.53703703703704" as="geometry" />
        </mxCell>
        <mxCell id="0SuDh5b31dQOesD8BtSc-122" style="vsdxID=20;fillColor=none;gradientColor=none;strokeColor=none;spacingTop=-3;spacingBottom=-3;spacingLeft=-3;spacingRight=-3;points=[];labelBackgroundColor=none;rounded=0;html=1;whiteSpace=wrap;" parent="0SuDh5b31dQOesD8BtSc-118" vertex="1">
          <mxGeometry x="0.9302325581395349" y="1.0185185185185186" width="76.27906976744185" height="79.44444444444446" as="geometry" />
        </mxCell>
        <mxCell id="0SuDh5b31dQOesD8BtSc-123" style="vsdxID=21;fillColor=#2d5967;gradientColor=none;shape=stencil(lZPdcoIwEIWfJrc7Sdb8XVt9D0exZErBidjq2xeaAMla2undcjiHfBt2GW6v9eFSMcmvfejeqk9/6muGL0xK39ZV8P1QMdwx3J67UL2G7tae4vPlMDrH6r37GL9wjzmHoNSYkvwRFStAi29lHwPHW4gJ8RxJkpVgdJTucnZxl1xJsghOJBcmlwSNyYXUlc5vfJsBa9gQXuqnvAqcI7gKOMFVoJDQapCEdogZAmsA1TosL0gF5+vW/CZ+tD/9Bg3GlH1NibmrWZiacgKcLptaPLgyACXo4s97XIO0IHQJuQE6KQqsIpggyZxkMzdxI9hfrvPvuf53YCiWNTr7polbmL+nazdIcWVx9wU=);strokeColor=none;spacingTop=-3;spacingBottom=-3;spacingLeft=-3;spacingRight=-3;points=[];labelBackgroundColor=none;rounded=0;html=1;whiteSpace=wrap;" parent="0SuDh5b31dQOesD8BtSc-122" vertex="1">
          <mxGeometry x="28.837209302325576" y="58.05555555555556" width="39.06976744186046" height="17.314814814814817" as="geometry" />
        </mxCell>
        <mxCell id="0SuDh5b31dQOesD8BtSc-124" style="vsdxID=22;fillColor=#2d5967;gradientColor=none;shape=stencil(lZXRcoMgEEW/xtcdWEDhOU3/I9OYxmkaM8a05u+LQ0BYIm3fcL3XOXtdoBKb63F3aStk13HoP9rvbj8eK/FSIXbnYzt0o11VYluJzaEf2vehv5337vmym5Xz6rP/mr8wOR83oHB2Ibu7itEgXeXVGU7dOTVgnRoa0KZg0NCI1FCD4OsGCYhl/dttcD1wJxBgPBKnFjahF9XmIcIgYvIhEpnoUTEKGr0OGxkI/SprMGT0C2roJ4P3pFFKlP0p6NKHJ6V6ShrFc8/gJ8yCvmf0njUWUfznsJHBVRBBiiJtA7VIaS2J1ARXg1EprkVRZAo4YyktKlClEQ9635wsJrvoPSlwnoFyAsrCxpuy2QykQfS3rUXlGSlolaKylJOljIveM5Iky/89jTHbepSOpBhlNmU8gdBnv76RvOQpov0kT0ezLGfAVNqVHUFZPF//fSD/ZrCL5fw/dKeTuz7i9/S+sCV314jtDw==);strokeColor=none;spacingTop=-3;spacingBottom=-3;spacingLeft=-3;spacingRight=-3;points=[];labelBackgroundColor=none;rounded=0;html=1;whiteSpace=wrap;" parent="0SuDh5b31dQOesD8BtSc-122" vertex="1">
          <mxGeometry width="68.83720930232558" height="75.37037037037038" as="geometry" />
        </mxCell>
        <mxCell id="0SuDh5b31dQOesD8BtSc-125" style="vsdxID=23;fillColor=#2d5967;gradientColor=none;shape=stencil(nZLdCsIwDIWfJrcjNuvA6znfY7DOFms7uvn39rYEcQ4sxbtzki+5yAlQO+t+UiBwXoI/q7sZFg10ACGM0yqYJSqgDqgdfVCn4K9uYD/1iUzq4m9pw4PnJKYRgU+2O2R/ZNYat2Lfzb/gDNrIUvJ7pcCqbkphqivc/4Y3dxCyGM1eIc9G8cllNNZyrOv+NsdY4h+g7gU=);strokeColor=none;spacingTop=-3;spacingBottom=-3;spacingLeft=-3;spacingRight=-3;points=[];labelBackgroundColor=none;rounded=0;html=1;whiteSpace=wrap;" parent="0SuDh5b31dQOesD8BtSc-122" vertex="1">
          <mxGeometry x="5.581395348837209" y="7.12962962962963" width="2.7906976744186043" height="8.148148148148149" as="geometry" />
        </mxCell>
        <mxCell id="0SuDh5b31dQOesD8BtSc-126" style="vsdxID=24;fillColor=#2d5967;gradientColor=none;shape=stencil(nZBLCoAwDERPk31tjuDnHoLVBmsrtf5ub0sQRdzobiZ5ycAA5pOuRwVSTMG7Xq3UBA1YgJRktfIUogIsAfPWedV5N9uG/VgnMqnBLenDxneZEOlGip09u4pRQ/aG/gTPhFf0Gf8J/otGcdXRkjHc5n3/rC+OuHosDw==);strokeColor=none;spacingTop=-3;spacingBottom=-3;spacingLeft=-3;spacingRight=-3;points=[];labelBackgroundColor=none;rounded=0;html=1;whiteSpace=wrap;" parent="0SuDh5b31dQOesD8BtSc-122" vertex="1">
          <mxGeometry x="12.093023255813952" y="13.240740740740742" width="0.9302325581395348" height="1.0185185185185186" as="geometry" />
        </mxCell>
        <mxCell id="0SuDh5b31dQOesD8BtSc-127" style="vsdxID=25;fillColor=#2d5967;gradientColor=none;shape=stencil(nZBLCoAwDERPk31tjuDnHoLVBmsrtf5ub0sQRdzobiZ5ycAA5pOuRwVSTMG7Xq3UBA1YgJRktfIUogIsAfPWedV5N9uG/VgnMqnBLenDxneZEOlGip09u4pRQ/aG/gTPhFf0Gf8J/otGcdXRkjHc5n3/rC+OuHosDw==);strokeColor=none;spacingTop=-3;spacingBottom=-3;spacingLeft=-3;spacingRight=-3;points=[];labelBackgroundColor=none;rounded=0;html=1;whiteSpace=wrap;" parent="0SuDh5b31dQOesD8BtSc-122" vertex="1">
          <mxGeometry x="12.093023255813952" y="9.166666666666668" width="0.9302325581395348" height="1.0185185185185186" as="geometry" />
        </mxCell>
        <mxCell id="0SuDh5b31dQOesD8BtSc-128" style="vsdxID=26;fillColor=#2d5967;gradientColor=none;shape=stencil(lZLZDoIwEEW/pq+T0qELz4j/QUKRRqQEcPt7WxsjaNDyNsu5N5PJJZiPTdlrwug4Dfaor6aaGoI7wpjpGj2YyVUEC4J5bQd9GOy5q0Lfl5701clevMMt6FgKmHkVo/cwSSh99vuAt6ab4akCqRa4YODbNYFESGS8/2sZBQsOii9wd57K1gWZBL485oe7pCDTWPj7L8iBi3UBE6Aw1p3GgpiA3PKQDc/eGJS/uCvemaxN24ZIz/efGXajkH8sHg==);strokeColor=none;spacingTop=-3;spacingBottom=-3;spacingLeft=-3;spacingRight=-3;points=[];labelBackgroundColor=none;rounded=0;html=1;whiteSpace=wrap;" parent="0SuDh5b31dQOesD8BtSc-122" vertex="1">
          <mxGeometry x="16.744186046511626" y="6.111111111111112" width="7.441860465116278" height="8.148148148148149" as="geometry" />
        </mxCell>
        <mxCell id="0SuDh5b31dQOesD8BtSc-129" style="vsdxID=27;fillColor=#2d5967;gradientColor=none;shape=stencil(jVbLcsMgDPwaXzWAeJhz2v5HpnEaT9Mk4yRt+ve1i7FBih83hNcsKy2CAjfXw/ZSFUpcb835s/qpd7dDgS+FUvXpUDX1rR0V+FrgZn9uqo/mfD/tQnzZdshu9HX+7lZ4hP+MAtP9pMRvmBD/0VvAvt+bAJbhI0asTMHioUKoFGjfI/opDfGfB4YZGdeIMYLQc6QavM9plQSnc2qR06IGV+a8Iqc1s0JFTmgNdHFKmOyqn3ElKEu0ttmVOW9pwds56jSJ/ZQ3YE1OP1Sij6UQObX24wYxx0wQW8eIx1V7mpLkOd1ZFJgss1azd0CclSaTSozkaVWQYlaVeYRL7psokVc69d+06kVjl4qqTk5LNBXRTKqcHN/M5j3jsT6tPut5X3A50lkQfk6LI4lstVmZS7EjfXQTP6WGyBkhU92BWafkNUTHqAVoUkJUrISLshU3Lu9NinDbwRgDtyKy21JJN0tMnSMBCSvTjElNpjWr4eRNXQJM85N+rGl/8mBIc+TeHUET1MazuyBdOObXsWvoyYl1jH5RueMd8knDoD0yKQ0SxNpql/Q+ElA60ii4aMtz7ohkZvC8Yyx1gXYwPiz29fEY3iXpd/oQaafCIwZf/wA=);strokeColor=none;spacingTop=-3;spacingBottom=-3;spacingLeft=-3;spacingRight=-3;points=[];labelBackgroundColor=none;rounded=0;html=1;whiteSpace=wrap;" parent="0SuDh5b31dQOesD8BtSc-122" vertex="1">
          <mxGeometry x="26.046511627906973" y="6.111111111111112" width="6.511627906976743" height="9.166666666666668" as="geometry" />
        </mxCell>
        <mxCell id="0SuDh5b31dQOesD8BtSc-130" style="vsdxID=28;fillColor=#2d5967;gradientColor=none;shape=stencil(lVPbEoIgEP0aXhnYVcHnLv/RpCaTqUN2+/tgKEpIx952l3OYc/ZCcHWud31JgJ0H3R3LmyqGmuCaAKi2LrUaTERwQ3BVdbo86O7SFi7vdxZpo1N3tT/cHY8zZjnAHi532dZBG9V+QQXQdCk2ZZTxERiRIk4TQCz/fLFiNIrHKhJJZb7053dvfgtOQ4cBfH/RrtE8JvCg+XeIugAhBCPIq5ILKuQ/o8iA2nSKkIVzlrO+BIt8Ca/IOzMlP4p3yW+ENycDa4JTzmc2MrKWZDQT04Q/tn0WaoLPQVWqadw9fr+HB2hK7nhx8wQ=);strokeColor=none;spacingTop=-3;spacingBottom=-3;spacingLeft=-3;spacingRight=-3;points=[];labelBackgroundColor=none;rounded=0;html=1;whiteSpace=wrap;" parent="0SuDh5b31dQOesD8BtSc-122" vertex="1">
          <mxGeometry x="36.279069767441854" y="6.111111111111112" width="6.511627906976743" height="8.148148148148149" as="geometry" />
        </mxCell>
        <mxCell id="0SuDh5b31dQOesD8BtSc-131" style="vsdxID=29;fillColor=#2d5967;gradientColor=none;shape=stencil(jZXbbsIwDIafprdWEud4zdh7oFFGNUZRgQ3efqmStnFY2kpcJOZ3P8ex4wo31+PuUleCXW9d+1X/NvvbscK3SojmfKy75uZXFW4r3Bzarv7s2vt5H/aXXa/sV9/tT/+FR/CzCtD0XoI9g0UI6Lf+9x4cPu5d8OBBYBRoHl0GE8hoeYhg0TiantHEogLDVlowLiowVRSwyMFkWEaZ3IHKmElgkcH98Sh18cACpKRgNMAkhTMKVg6EpmRGsT7z3M5hGWU6AcrNMp0GnEVyNpthCdZR5uAwpXjKXhEqODhNwaOolOHEpXzcVBVN1o4xz+An1Xq+YWNjjHwJkuKVAqUyvL94Q/G+0rmaLW0JfLnCJAdpKB8RMMv+P201qQp8pSHrrPTD5Y5Og4wsbYdyWH16g8ANxafdM3Ry8uqI1yvCV1Xp8k/NOXkAU4+88goBWwEOq6Vq9SbtaMCpKmvJqVVyOg130q8sbWdA6cXsOv8YLV9uOixKjycNd8V48YtpOB2a0ynMtvT/fJh5UxiEuP0D);strokeColor=none;spacingTop=-3;spacingBottom=-3;spacingLeft=-3;spacingRight=-3;points=[];labelBackgroundColor=none;rounded=0;html=1;whiteSpace=wrap;" parent="0SuDh5b31dQOesD8BtSc-122" vertex="1">
          <mxGeometry x="46.51162790697674" y="6.111111111111112" width="7.441860465116278" height="5.0925925925925934" as="geometry" />
        </mxCell>
        <mxCell id="0SuDh5b31dQOesD8BtSc-132" style="vsdxID=30;fillColor=#2d5967;gradientColor=none;shape=stencil(lZPbkoMgDIafhttMICJw3cN7dFq7Mmu1Q+3p7VcnthXdddi7JH6B/49E0OpS7s6FUHhpQ/Nd3P2hLQWthVK+Lovg2y4StBG0Ojah+ArNtT5wft71ZB+dmlt/woP7JGLfo/DJOWdbRitfj1CjQKeyGgFlBGcIOvu7QZn0w5MVU6c4VqEdZPmCiliD0ZDbMb2/Bh6enF8wlIwF4h58qLf19zCGkpWAL4oG6jMBmkKJM57pnTTE7iyBWXSXm5k760C62J3F2JrLII+dOYx9vd7cryLHlyb9s3+84EW0Cz5LcvRVxTs2/j5dqq7EC0mbHw==);strokeColor=none;spacingTop=-3;spacingBottom=-3;spacingLeft=-3;spacingRight=-3;points=[];labelBackgroundColor=none;rounded=0;html=1;whiteSpace=wrap;" parent="0SuDh5b31dQOesD8BtSc-122" vertex="1">
          <mxGeometry x="55.813953488372086" y="6.111111111111112" width="6.511627906976743" height="7.12962962962963" as="geometry" />
        </mxCell>
        <mxCell id="0SuDh5b31dQOesD8BtSc-133" style="vsdxID=31;fillColor=#2d5967;gradientColor=none;shape=stencil(nVXbcsIgEP2avO7ALgR4tvY/nBprpladqK39+yYFwiUGtW/k5Cxn71S0OG1Xx6ZCdjp3h4/mu12ftxW9VIjtftt07bk/VbSsaLE5dM17d7js1/b7uBqYw+nz8DXccLV2NQOFgxWyH4do4PoPebUGb5fOWnBHUKClM/EQB6otdEULKU9x37IG7YSuZCGNwIVjOUgioCqJa+MJo7hQoCgVNxhcdJAgH9aoH7McRBpqUdI3NQhM9UkAM6k+ZyxVJz6JPnAcgOpO7MHCAzrEhFP/vDNRcXzmJSieqo/lmRFXWcnHQo3StQDUqTRLZUXvHKWyrKRJJtzI0xt9XvsWkkVN5CCyJrvXY7wPxGQ9BlJm/T0RjjhJcLMp3rX7aBI92fkon/QQGYhsBFGDVKmPccfQNMmUs2b0pQqTO9+LNxqiz/04qzRleZf4nWaMbXhuU9KPZ7WgX/uJeUJ/3BxBP9qtvkcYGJ7qx7n0cyJBFOsvKVR2fgvG4+a3cDS28/WXxmfpgU7VebJKZL/CblLDfvsHWec9k9LjKB8yeOBhfNqgP4R3eNPudvYZj//n73YP2Teflr8=);strokeColor=none;spacingTop=-3;spacingBottom=-3;spacingLeft=-3;spacingRight=-3;points=[];labelBackgroundColor=none;rounded=0;html=1;whiteSpace=wrap;" parent="0SuDh5b31dQOesD8BtSc-122" vertex="1">
          <mxGeometry x="5.581395348837209" y="22.40740740740741" width="4.651162790697674" height="8.148148148148149" as="geometry" />
        </mxCell>
        <mxCell id="0SuDh5b31dQOesD8BtSc-134" style="vsdxID=32;fillColor=#2d5967;gradientColor=none;shape=stencil(nZBLCoAwDERPk31tjuDnHoLVBmsrtf5ub0sQRdzobiZ5ycAA5pOuRwVSTMG7Xq3UBA1YgJRktfIUogIsAfPWedV5N9uG/VgnMqnBLenDxneZEOlGip09u4pRQ/aG/gTPhFf0Gf8J/otGcdXRkjHc5n3/rC+OuHosDw==);strokeColor=none;spacingTop=-3;spacingBottom=-3;spacingLeft=-3;spacingRight=-3;points=[];labelBackgroundColor=none;rounded=0;html=1;whiteSpace=wrap;" parent="0SuDh5b31dQOesD8BtSc-122" vertex="1">
          <mxGeometry x="12.093023255813952" y="29.537037037037038" width="0.9302325581395348" height="1.0185185185185186" as="geometry" />
        </mxCell>
        <mxCell id="0SuDh5b31dQOesD8BtSc-135" style="vsdxID=33;fillColor=#2d5967;gradientColor=none;shape=stencil(nZBLCoAwDERPk31tjuDnHoLVBmsrtf5ub0sQRdzobiZ5ycAA5pOuRwVSTMG7Xq3UBA1YgJRktfIUogIsAfPWedV5N9uG/VgnMqnBLenDxneZEOlGip09u4pRQ/aG/gTPhFf0Gf8J/otGcdXRkjHc5n3/rC+OuHosDw==);strokeColor=none;spacingTop=-3;spacingBottom=-3;spacingLeft=-3;spacingRight=-3;points=[];labelBackgroundColor=none;rounded=0;html=1;whiteSpace=wrap;" parent="0SuDh5b31dQOesD8BtSc-122" vertex="1">
          <mxGeometry x="12.093023255813952" y="25.462962962962965" width="0.9302325581395348" height="1.0185185185185186" as="geometry" />
        </mxCell>
        <mxCell id="0SuDh5b31dQOesD8BtSc-136" style="vsdxID=34;fillColor=#2d5967;gradientColor=none;shape=stencil(lZLdDoIwDIWfZrfNto6NXaO+BwlDFpERwL+3l7kQQSOOu9P260naHIJZX+WtIZz2Q+dO5maLoSK4I5zbpjKdHUZFcE8wK11njp27NEWo29yTXp3d1Tvcw55WkEi/xekjdOirOgS4ts0MVhQUxsIiBaUXMAqg+vcCl5BGu9NYEBkotoCFmq6IcGZ0xZsLQB2Pf39EIkix8m8EpuL9p2EULBNI5Za/bErKH3gU70CWtq5DnufzzwCPrRB+3D8B);strokeColor=none;spacingTop=-3;spacingBottom=-3;spacingLeft=-3;spacingRight=-3;points=[];labelBackgroundColor=none;rounded=0;html=1;whiteSpace=wrap;" parent="0SuDh5b31dQOesD8BtSc-122" vertex="1">
          <mxGeometry x="16.744186046511626" y="22.40740740740741" width="7.441860465116278" height="8.148148148148149" as="geometry" />
        </mxCell>
        <mxCell id="0SuDh5b31dQOesD8BtSc-137" style="vsdxID=35;fillColor=#2d5967;gradientColor=none;shape=stencil(lZTRdsIgDIafprc5kEAK1869h2fWtWfOeqpu7u3XDmwbcPV4Bz8JH4GfFLQ61ZtjVaA6nbv2o/putue6oJcCsTnUVdec+1FB64JWu7ar3rv2ctiG+XEzRA6jz/Zr2OEa8tCA0kMWqp+g6BJU+ae8hoS3SxcydAhwU0ZUkMFRkK4YJBUj4tRoMBwjSEbEqXVgzRJWSWZpgbVkzg4WFa8AjcSimqKipJVaAs+vSOf7RhRhRi/7A1lJJ87o7AD9En+eEyW24GzC54zPCrx7yLcM+km8IfCSbvpbRUknAzqp3riMjh5w0W2WE68ZoATOJitde7Bawt2dhx+j/rO6k3CNgJLt7zw7EEr0zWAjeNFvnqe7lN4fje4kUT2sdBHIyddCMIm57zxvXuX8n9wKT3vJvjk813z6wdS6ds1+HzrffD1tdb0U2iStfwE=);strokeColor=none;spacingTop=-3;spacingBottom=-3;spacingLeft=-3;spacingRight=-3;points=[];labelBackgroundColor=none;rounded=0;html=1;whiteSpace=wrap;" parent="0SuDh5b31dQOesD8BtSc-122" vertex="1">
          <mxGeometry x="26.97674418604651" y="22.40740740740741" width="3.720930232558139" height="8.148148148148149" as="geometry" />
        </mxCell>
        <mxCell id="0SuDh5b31dQOesD8BtSc-138" style="vsdxID=36;fillColor=#2d5967;gradientColor=none;shape=stencil(lVRBcsIwDHxNrhpbsmX7TOk/mBJKppQwAVr6+zq140RpyZSbo2jt1a6kilbn/eZUV6jOl659qz+b7WVf0VOF2Bz3dddc4qmidUWrXdvVr117PW7T92nTZ/an9/ajv+GWcEEB+x6F6itF0IA2P5HnBDg0xwnAGbASYAx4mgJerl16QqcE9sAmQ3LIYrnlhjlLg+ecNYQUUAbeKAMtqOF5Ktfr+3zNrwI9guP7AM0QrADYAMbfB5AG4scUIT9oXBQhB4GkIsYORIsi8S1FM0UMoJGKoF3wz4JBwXZe3ZysQ/BekuWRRSbmRqsKVzBWUmUHM+/UgnEMrAVRbcHig7KiBmslVVJgtaQaNSAtueKk6hwiBlzoNPVQ04ShRUp1akEMjj0rxXAMblGMqSPjIAae+eZAoxQjDiLOxPAEykoxxgn+e4qUlCM2rg9LdIMDw5Lu1JXMLRhQbuZdEaLQnS61wc7lrfaPNRgP4xLdNYdD2sHT//OlG0NpYdP6Gw==);strokeColor=none;spacingTop=-3;spacingBottom=-3;spacingLeft=-3;spacingRight=-3;points=[];labelBackgroundColor=none;rounded=0;html=1;whiteSpace=wrap;" parent="0SuDh5b31dQOesD8BtSc-122" vertex="1">
          <mxGeometry x="15.813953488372091" y="53.98148148148149" width="21.395348837209298" height="22.40740740740741" as="geometry" />
        </mxCell>
        <mxCell id="0SuDh5b31dQOesD8BtSc-139" style="vsdxID=37;fillColor=#2d5967;gradientColor=none;shape=stencil(lZHdDoIwDIWfZrdNbcmAa8T3IGG4RWRkgD9vL3MxMg1E707brydNj+Bi0FWvBOEwOntSV1OPWvBeEJlOK2fGWQkuBReNdero7NTVoe4rT3p1thfvcAt7OUjyS4T30MBndQhsa7oFixGYQpass1++nALJdV4yJDJayBFowx+Bs4jf4cbpr+GP5n88ZZudxfvzjWnbENxy/pnU3Aopc/kA);strokeColor=none;spacingTop=-3;spacingBottom=-3;spacingLeft=-3;spacingRight=-3;points=[];labelBackgroundColor=none;rounded=0;html=1;whiteSpace=wrap;" parent="0SuDh5b31dQOesD8BtSc-122" vertex="1">
          <mxGeometry x="13.953488372093021" y="69.25925925925927" width="9.302325581395348" height="10.185185185185187" as="geometry" />
        </mxCell>
        <mxCell id="0SuDh5b31dQOesD8BtSc-140" style="vsdxID=38;fillColor=#2d5967;gradientColor=none;shape=stencil(lZXLcsIwDEW/JluNLfm5pu1/MCWUTClhArT07+vUMX6VkO4c+Sonkq6dhlan3frYNshO56F/b7+6zXnX0FOD2B127dCd3aqh54ZW235o34b+ctj45+N6VI6rj/5zfMPV5wkLBscsZN8+whn7fX7x8tfL4PXcbysOQk4JPM9gV/QBTcDspJlCVoIQk4p8yCBwM6lCSIKlOfoNFdhKA+XwKJkCpAHVQzQ3oGbRSgCpHF6UTRKUyNks53Idu72UWxScVpNDAjNpyX3sw06jAlnMOZ1hKNnERpb9D/TUYvSnx/bd4T+WzB2MzpAqkyOCmK/NxpRgLAFMF7XZapzuy2xenGSVk26ie0ZioKnobHxvOEIMLC8am3zihNImqmhh8VZUg3VT1Cbnp6rgKxlV9/nj0Zo/RwSoi/INiILvbH4bEdYqqme/lC+r+ystDCtRdANXD+lV93NrL/CqW8S7etvt9/6qT/fLu92F/H+Bnn8A);strokeColor=none;spacingTop=-3;spacingBottom=-3;spacingLeft=-3;spacingRight=-3;points=[];labelBackgroundColor=none;rounded=0;html=1;whiteSpace=wrap;" parent="0SuDh5b31dQOesD8BtSc-122" vertex="1">
          <mxGeometry x="26.046511627906973" y="11.203703703703704" width="50.23255813953487" height="51.94444444444445" as="geometry" />
        </mxCell>
        <mxCell id="0SuDh5b31dQOesD8BtSc-141" style="vsdxID=39;fillColor=#2d5967;gradientColor=none;shape=stencil(lVbbUuMwDP2avGpsKb49s/AfDBSaodsyoeyWv193bcey0qTtW6JIPjrSkeKOHr62z5+bDtXXcTx8bP4Or8dtR786xGG/3YzDMT519NjRw9th3LyPh+/9a3r/fD57np9+H/6cTzilOKOBzDkK1U+yaKX+vz8l95fvMfnr9Nk6MDYH6DZCnTAZXABH2SebggGVw06UTN6BL17VZM0aejwm9C16BFO6xZ8SKujWgnUtevXJBqPA4hp2jcgG6sG4Fpnnl02IgCiYW+h9i64JjF9Ddx7It/j9hHWqPAtWgVcttBGsV3tNBE5gik5HcsG1gCwrxk3fSddAr1tkXseWW0Hm/aDW49Yeiw5z3Uz0lGlhuQCXGV+VdjyZsIXnQ1M4GtBCYHX8Cks200LtGXs37O/ZAe3KIISeGvfYrUCrQoqCD2JpxB1hRGkJUHJzgF6wQ3CC3OS0tLMUeKEmfnAZHrbZcJ5kBnNM8XQjfedAidbGIoqldWFpUphkNMEzr2zqQ9kMS/AspoxXABTK4knWioSr7F2cCLdafQ9BsPcKUDSf9yibfOy02JwXpF29FvC5rPT8ZJxLFOdZZjDSoPyd/DEWVpSfFbYsUjb9tSK9KD/3urX7UZ1WLHGuK5wnWSoSOyJ+2Xz0l8Tf7pYblkV8qLeTt2G3S5cb/l3eZqIp3YTo8R8=);strokeColor=none;spacingTop=-3;spacingBottom=-3;spacingLeft=-3;spacingRight=-3;points=[];labelBackgroundColor=none;rounded=0;html=1;whiteSpace=wrap;" parent="0SuDh5b31dQOesD8BtSc-122" vertex="1">
          <mxGeometry x="38.13953488372093" y="30.555555555555557" width="13.023255813953487" height="15.277777777777779" as="geometry" />
        </mxCell>
        <mxCell id="0SuDh5b31dQOesD8BtSc-142" style="vsdxID=40;fillColor=#2d5967;gradientColor=none;shape=stencil(lZRNcoMwDIVP463Glvwjr9P0HpmGFKYUMoS05PaFmpSoMzjJTjx/knlIQtHmVO6OhUJ96rv2o/iu9n2p6EUhVk1ZdFU/Roq2ijaHtiveu/bc7NPzcTeRU/TZfk0VhpTnImicslBfkkIO4q/wmvi6am54QghR8AaQ13kD3j6BUwRygrcMAdcTtCyu9TqKEZx5HHcBiAXuETjzKuwA3eP1mcFRDn87d6lTJh1HAnutv0hu7saAs+QhXMvOEgcws5OB5FX6Mgshgs20PTiwckzu9CUyUJDuIiBl/TnQLP2Zvy+++DPARvrzYI20xx44SoO5ThB4ORi5sXhyYe7zY7Bs56Gq67Tct+f/t3mU0p+Atj8=);strokeColor=none;spacingTop=-3;spacingBottom=-3;spacingLeft=-3;spacingRight=-3;points=[];labelBackgroundColor=none;rounded=0;html=1;whiteSpace=wrap;" parent="0SuDh5b31dQOesD8BtSc-122" vertex="1">
          <mxGeometry x="53.02325581395348" y="30.555555555555557" width="10.232558139534882" height="15.277777777777779" as="geometry" />
        </mxCell>
        <mxCell id="0SuDh5b31dQOesD8BtSc-143" style="vsdxID=41;fillColor=#2d5967;gradientColor=none;shape=stencil(lZXbcoIwEIafhtudZDcHcm3b93AqVqZWHNTWvn2hISQbRsC7sPzJt8ekoM3lsD1XBYrLtW0+q596dz0U9FIg1qdD1dbXblXQa0GbfdNWH21zO+3893nbK/vVV/Pdn3D3+5QF029C8esNUoj/7zevfr+1Xi79b+3A4LBB8h3ijt5gEWTQDCanQbpBRd5USkA9qILJgDBz9BEV2MYCSU6PmsFAFvQiWpZg9RzaYDglsLOoCcE4ThYcKwmcehKroJQcixbKkqPzgB1kuRacqhHUHDRPshrPw4lXoeYGHC6Gu1hgJNCG09PWCQFq0CXnxyakSWMTlwzoY316Yg741MSyBXl0/FFkMUHj4GigrJJdr4psdKQErRZjG0WP5rYEaTN8cvDAMklcOHWSxlqrrLCL4TscBzXwuzZVyPmpKri0ih8n+tH4itgywSULMrs7SIHJ+KlqMrTr+V2yRdbYNvb6mH+wlIVPoAzHJ6KV85zsCNeKBNKcnXoY0hHvyZnYJ7Xnk7ViVrpFfJ/29fHon7f0f/6edSb/FtLrHw==);strokeColor=none;spacingTop=-3;spacingBottom=-3;spacingLeft=-3;spacingRight=-3;points=[];labelBackgroundColor=none;rounded=0;html=1;whiteSpace=wrap;" parent="0SuDh5b31dQOesD8BtSc-122" vertex="1">
          <mxGeometry x="33.48837209302325" y="16.296296296296298" width="37.20930232558139" height="40.74074074074075" as="geometry" />
        </mxCell>
        <mxCell id="0SuDh5b31dQOesD8BtSc-144" value="&lt;div style=&quot;font-size: 1px&quot;&gt;&lt;p style=&quot;align:center;margin-left:0;margin-right:0;margin-top:0px;margin-bottom:0px;text-indent:0;valign:middle;direction:ltr;&quot;&gt;&lt;font style=&quot;font-size:16.93px;font-family:Oracle Sans;color:#000000;direction:ltr;letter-spacing:0px;line-height:120%;opacity:1&quot;&gt;OCR Engine&lt;br&gt;&lt;/font&gt;&lt;/p&gt;&lt;/div&gt;" style="verticalAlign=middle;align=center;vsdxID=43;fillColor=none;gradientColor=none;shape=stencil(nZBLDoAgDERP0z3SIyjew0SURgSD+Lu9kMZoXLhwN9O+tukAlrNpJg1SzDH4QW/URgNYgZTkjA4UkwJUgGXng+6DX1zLfmoymdXo17xh5zmRJ6Q42BWCfc2oJfdAr+Yv+AP9Cb7OJ3H/2JG1HNGz/84klThPVCc=);strokeColor=none;spacingTop=-3;spacingBottom=-3;spacingLeft=-3;spacingRight=-3;points=[];labelBackgroundColor=none;rounded=0;html=1;whiteSpace=wrap;" parent="0SuDh5b31dQOesD8BtSc-145" vertex="1">
          <mxGeometry x="10.232558139534884" y="89.62962962962963" width="59.53488372093023" height="20.370370370370374" as="geometry" />
        </mxCell>
        <mxCell id="0SuDh5b31dQOesD8BtSc-186" value="" style="group" parent="E3ZB4-CnnIWMfGLpdKub-6" vertex="1" connectable="0">
          <mxGeometry x="180" y="350" width="130" height="130" as="geometry" />
        </mxCell>
        <mxCell id="0SuDh5b31dQOesD8BtSc-173" style="vsdxID=124;fillColor=none;gradientColor=none;strokeColor=none;spacingTop=-3;spacingBottom=-3;spacingLeft=-3;spacingRight=-3;points=[];labelBackgroundColor=none;rounded=0;html=1;whiteSpace=wrap;" parent="0SuDh5b31dQOesD8BtSc-186" vertex="1">
          <mxGeometry width="95" height="81.25" as="geometry" />
        </mxCell>
        <mxCell id="0SuDh5b31dQOesD8BtSc-174" style="vsdxID=125;fillColor=#FFFFFF;gradientColor=none;shape=stencil(pZfRchshDEW/xq8aQAiJ5zT9j0zjNJ6mccZxWufvq+0uYLRd0k7fHCLtAaF7tbvDm9fHu5f9LrjX8+n4bf/zcH9+3OGnXQiH58f96XDWXzu83eHNw/G0/3o6vj3fz3+/3E2R06/vxx/TEy5zXkjAecoK7n1e8c79/vvzHP50eB6GE0PA7QT3T8EQYh+PEMN1/Je307x7XzIoLBnLShQQmpcuYTlRXXlfVmKEuJAuuCyBKwcrKw6SH8ETIPZw1PJID8/lBBWOCCn1cI/gsKejB6IRXXPE4n09RD17BELDdxDR8Alc6vm68YRDPpXyVH7Q2gfDJ8jS8wODZMNP4MnwE+Rh9TWnPrnwQ22gys8QTP29gDOXr4kGP1Vk2HmBgLnHew/ZlF+rKOb43gEaPEbw5vpb1AZfc1I2fM3p8UgQaI03dKq3tknvdaptXpv6b7eryl/v1ghVg2yzaJRns19pJ8ciMhn2KqoKe7oumKtSuTtTK6nbuTRPIOnZ8sHJI7bnLksEmAxcBRB7OII37AzEPdsDDz2CjEE4MPKgBIl7ruupSU3ZWIPWIA99EZvhlssGb3wxcXtuEQuwEQYr3PdwKoXagDO2SpalaoEFztTmRmu0ZFyJeS3L+MFtaw4ZvFpJMNfNsrputTNnpoJGiSm9RqVh7Tm3Bi18BvQ9X9xqKmkUU88XXxMrXxXKI75gNffKV72aqSCpav+9GfWKL6XR2lTQLQ1tOWMVdp0KcTWVMtcRcDUVg6l/ljY7i/ekosGtqeRcT4+hToBKz2BG8iRt03xZSebyiYaunKlpub1u+e0Erta1mbBqr6uUovYIed3eaMqbpHlea29v2iupkQ9OOD232+8q/g/7DcYD2Zectl9uQitL2Jqm2YEZk2ojSba3q/qhfr+qTj80bJVPNNapWmVTX1FHMXNSQjO5Ip+rF6SyFM37tOkgB+K7DasEefDCrlTpT6jK6g3KJLj67lsSMmTaTvjv7xMTrj/ap9DD4elp/pK6/r/9dNKl+bMLb38B);strokeColor=none;spacingTop=-3;spacingBottom=-3;spacingLeft=-3;spacingRight=-3;points=[];labelBackgroundColor=none;rounded=0;html=1;whiteSpace=wrap;" parent="0SuDh5b31dQOesD8BtSc-173" vertex="1">
          <mxGeometry width="92.76470588235294" height="80.16666666666666" as="geometry" />
        </mxCell>
        <mxCell id="0SuDh5b31dQOesD8BtSc-175" style="vsdxID=126;fillColor=#FFFFFF;gradientColor=none;shape=stencil(pVnbchs3DP0avWJ4vzzn8h+Zxqk1deyM7LTq3xdbLYHl4S7lTN5sCtQhQeDgADr5D6+PX348nJx5fbu8/PXwz/nr2+PJfzw5d35+fLic3/ivk/908h++vVwe/ry8/Hz+evv/x5fFcvnr+8vfyzdcb/tiomqXXc78e1txFP7///PN/I+fl5u9vX2cDJW2wbYdvtxWrm41CpTcarQueYp1NfKrUabqV6N1KVKpM/BsyfkevJCtPXj2eqV1yVoKpUfPkRKg2zi/ek4EN7eJQgL0RDkDeiYPd89ZHdTQ+SZuCl8oRMAvVALgVwoe8Cv52OMXIwcX/Npe6AC/OCq5x3eGLDx9iWRTj+/41RA/60OuSxxG2c/wqx0jL1IF/BqbGzX0LJnc49dE0fb4njMhTfFzi07BD+wSeP+6udm6FKocSfA5QXKPH0OL0RX/6fy8SVTeYRr6uiFSPrbnOEzpt+xTJXcvH1LvD85PpIIlaULvD07QnWz08B68FOzxeTmCnevOy5Hvy+y8HMAGApi/pbr+wMVrmDnZmCwEcNQ0a0uhLe0fmNO3PzAnQa6TDezM/kU4tnM43sAOiLnfkCkd2zN3ht8xnweUI1d+yVz8uZp78lM+dASPyXlmGs9I1amNMlsyBqk6UojItIutK8E2xjwKJbJQh3wW3r9K1QEeClSAB22QhBEeEpo9wOYyhdhcgT1ga61SFozAgmyUoQp5Q2ma9EsxCz28q5QtwLM3So/PPkvgeLaqcHuXKUyrEJe8iFUgEDw717IERZiLUIIi7DYJpkXQ2xk8R5TBIpw0ohpYbNSpRThKlF31ruh+y+Qzha8SQgLPeYBR74YazFYOKIzDMVSAF6sDfM+3QA3EYBD4bBVRg2ystOCKK4/we47gHbmnoPsHzlrW7OiKdmAOqogHhtNWEXFyWntHMYVNjbKyBxUTW1XIFWsoQoVkSoJY5VCY6qXgtRy0+qyFt4GzgoJIjQ1IoIt+UVtqhHOAHVnyAUcN3MyCxwC0G4Tytj9paUOTGni3n7nX/hgy06rDZSkD/RrJCbmaIcg/o0naXMiRieTXcuToRQPlhG4F/cmS1ELuRQHaBDMSb6Hpg/KOCMRTRCdJGnEBBuw60k4ZWo8KyncniVF515H0WHhnBC8QTswgKSJ4mcgS3mB72Y32OxSZ8KxlIMjhoEiOgcL8nAOuRO4GGFpjDoWhObXSiUpdcoMosRJ5R2UZ3mcp7T02l8mhJruhMeQyWaAmMmuZuSTQABdJwBEDTLfIph1JAnfni1YIkCWG54KM9Qd4fnE9SiLf+kuVZEZE71UFADZCbDXNjqqjBNWDFWghCfMLOEc2UpLGelsxrWU6ujthS8zXhJc3Q3FdKkoPbSQSpB/2rVLuJqbZaYfjpHsxvXEhM/lydhc2L7+6wRpzbL4dv7zH3KpSWt+8Num6v8GpTFw3ZIoT+6qxKSsT+2rx/NzLllm3PgLIXGB/Q9IuXO6Up53JMnkCbcp+LlAmuL2HEsVts4EysbTekAk5T8cz/LHw1roSmoY7nud5OG92A22xFbBGtsM4aTECxk619WnH8MiaqZDDYerGqlFJkg5whu9aiOz7a7PjXRlWo5zt3RtKPw1hsVfcZANz5DDgSPORZFXNoUOIjL24Mb0HgxsGAbUMzRgTtJ9yLx+4AvtuJU/TFp5QbjDRO4z4MtSdRbNOeyvOUVQcdpNLmnDYWmUduuk8umArnltJOII3OllU1WEwf1hcouTRsccmgAtKnnSntdzJX9tGXAqfZUK/nQTA67OVKIjNZGiKHmUmKegGsN2guJLOZ5UnDAwyfYvOo5+ANkpKZAAOoJJVMdF0QI+809ph83Wvt0N7/kN/6Pp2fnq6/U62/Rx/GOOl249q/tN/);strokeColor=none;spacingTop=-3;spacingBottom=-3;spacingLeft=-3;spacingRight=-3;points=[];labelBackgroundColor=none;rounded=0;html=1;whiteSpace=wrap;" parent="0SuDh5b31dQOesD8BtSc-173" vertex="1">
          <mxGeometry width="95" height="81.25" as="geometry" />
        </mxCell>
        <mxCell id="0SuDh5b31dQOesD8BtSc-177" style="vsdxID=128;fillColor=#2d5967;gradientColor=none;shape=stencil(pZTdboMwDIWfJrdWHOf3uuveo1rpQGNQUbq1b9/QACORALHehZPPOcF2zGh3yQ/njAl+aZv6K/stjm3O6I0JUVR51hStXzHaM9qd6ib7bOprdQzf50NHdqvv+qc74RbinAPXBQl+DwJa4PRU3gNfFtWENwa4iQL4PMz/ByJfQJ2/gNqAK5AR7SxoNeU/rk1ICPYAQbf7DBkkDU4H6SZ6CQGHPIjRCm1PUZCsAzFQNB5PYv6+FmSc3q28BmXmce2A40u8UMDdQr4R1Es8STBypT5jB/YSKdCY1EeCorg+5H81qY8vmU3qQ2atPwxITPwtWJn4WzAu9pccUMX+Q+uO7tKnQy9ka+NrXefjaeBft6QowCXZSLpvfEwTA4WL4yMx2BywfKN13i/+huGpKMswS6f76fD0Uhi8tH8A);strokeColor=none;spacingTop=-3;spacingBottom=-3;spacingLeft=-3;spacingRight=-3;points=[];labelBackgroundColor=none;rounded=0;html=1;whiteSpace=wrap;" parent="0SuDh5b31dQOesD8BtSc-173" vertex="1">
          <mxGeometry x="26.823529411764707" y="22.75" width="45.82352941176471" height="56.33333333333333" as="geometry" />
        </mxCell>
        <mxCell id="0SuDh5b31dQOesD8BtSc-178" style="vsdxID=129;fillColor=#2d5967;gradientColor=none;shape=stencil(nZHNDoIwEISfptem7IrAGeE9iBTbWCkpReHtpdkmookkepudftO/YViOqhkkAzF6Z6/yoVuvGJ4YgO6VdNqvimHFsOyskxdnp76leWgCGdTN3sMOM+VESIBYtlNNoNH9VzARO2ie8WSPPk+OrpBEvuBpEQPROqY8Q7JmIKtAnh8iFS0EDhHC95PEgj++6D9wFa+f7bQxVMx2/bOJ1aIWsXoC);strokeColor=none;spacingTop=-3;spacingBottom=-3;spacingLeft=-3;spacingRight=-3;points=[];labelBackgroundColor=none;rounded=0;html=1;whiteSpace=wrap;" parent="0SuDh5b31dQOesD8BtSc-173" vertex="1">
          <mxGeometry x="35.76470588235294" y="49.83333333333333" width="7.8235294117647065" height="3.25" as="geometry" />
        </mxCell>
        <mxCell id="0SuDh5b31dQOesD8BtSc-179" style="vsdxID=130;fillColor=#2d5967;gradientColor=none;shape=stencil(nZHRDoIwDEW/Zq/LaAnDZ8T/IDJkERkZA/Hv3ShEolES39p7T5e1l2HW10WnGIjeWXNVd126muGRAei2VlY7XzHMGWaVsepizdCW1HdFIEN1M2N4YaK5BDkcwhSIByli7k4EN7rdwOI/MBI/0NX8Ap8HS9+NyE4THtx5YJWAQ0zSBCRJ5Em0UIsUS57KhcLP3XF3p51L+eJ140o3DUW09d8z8RLlifkT);strokeColor=none;spacingTop=-3;spacingBottom=-3;spacingLeft=-3;spacingRight=-3;points=[];labelBackgroundColor=none;rounded=0;html=1;whiteSpace=wrap;" parent="0SuDh5b31dQOesD8BtSc-173" vertex="1">
          <mxGeometry x="35.76470588235294" y="67.16666666666666" width="19" height="3.25" as="geometry" />
        </mxCell>
        <mxCell id="0SuDh5b31dQOesD8BtSc-180" style="vsdxID=131;fillColor=#2d5967;gradientColor=none;shape=stencil(jZHRDoIwDEW/Zq/LaIHBM+J/EBluERkZoPj3snRENEp8a29Pm7tdhsWgq14xEMPo7EXdTT1qhgcGYDqtnBmXimHJsGisU2dnp66mvq886aurvfkLM+0JvwHiQV0kqD8S2ppug67DH/BpcnQ4onEOXCZhIUhpxkGSNANJmeRJHqggYczTlcJAxTyBQOHW+Fej7zb/Bncfv4suxet/G9O2FM92/pnHIlGWWD4B);strokeColor=none;spacingTop=-3;spacingBottom=-3;spacingLeft=-3;spacingRight=-3;points=[];labelBackgroundColor=none;rounded=0;html=1;whiteSpace=wrap;" parent="0SuDh5b31dQOesD8BtSc-173" vertex="1">
          <mxGeometry x="35.76470588235294" y="58.49999999999999" width="7.8235294117647065" height="3.25" as="geometry" />
        </mxCell>
        <mxCell id="0SuDh5b31dQOesD8BtSc-181" style="vsdxID=132;fillColor=#2d5967;gradientColor=none;shape=stencil(lZJNEoMgDIVPwzYDQUDXtr2HU7Uyteqgtnr7akErLvqzSx5feCSE8LgtkiYjSNvO1NfsodOuIPxAEHVVZEZ3U0T4kfA4r012MXVfpTZvkpmco1t9n28YbJ2UEIq5CuloFUbpKz9Z/NwbyzNXoCBgrsBJ0SRZZUAHhUCdNDopCgCVo/hKqcXbSREDqT7ZKwVS+PYC1xct/mEI3LdHBih8+6XR1dzru9TVZkzUG9HP4G6WPvp19H/iU/D+5VyXpV2S7fl+KybJbhQ/PgE=);strokeColor=none;spacingTop=-3;spacingBottom=-3;spacingLeft=-3;spacingRight=-3;points=[];labelBackgroundColor=none;rounded=0;html=1;whiteSpace=wrap;" parent="0SuDh5b31dQOesD8BtSc-173" vertex="1">
          <mxGeometry x="35.76470588235294" y="41.166666666666664" width="16.764705882352942" height="3.25" as="geometry" />
        </mxCell>
        <mxCell id="0SuDh5b31dQOesD8BtSc-182" style="vsdxID=133;fillColor=#2d5967;gradientColor=none;shape=stencil(lVfbVtwwDPyafdWxJV+fafsfnLKUPaXAWaCFv6/SRHakEG95y3qtjCWPZpQDXT3fXT8dD+ieX86PP49/Tjcvdwf6ckA8Pdwdz6cXfjrQ1wNd3T6ejz/Oj68PN/Pvp+tp5/T06/H39Ia3OS5lCH6KQvc+r0QHJf5b+TYHfH89zxF+3pAd1LqELEuBgNK89IbLLg9Zdi1LFKDILlrgKyTZtSxhghJG+HzkaPB9geI1fkLIqPF9P5Lgxwg1afwMzo/gQwWfNTwCkkYPXCPS6E4jE0KKGtlBHiJj6HcliUMwyD5Byho5ggsa3PMda2xeqThMG6rJmpFaOQW80UCwOS4acAfJgHMtyjBzZ+jmwWWNzFcQNTLfE3mNnFuYIMckSzvIzJkSNTozq9iiM/8M2Zmlcg9vndnVa3zmfx42G/dMDRqfO6ugoRtBMIWfurQYsq9ISe2UVNf496eHlTrE2ptoeW2VtPa6k8CjPnAJgLY7U8tBDlwKRHtfrlVaDlwRIu4fOBcgdV7v3P5u+bMlVwDD/vYJu+oAJ2nsVGNKylSDU8+GvFwgb3qWy2iblksfLX2riMiHB/4Pcf90gLYPnyEXHcBWUIYdRV2guqSisQ/uO+91SZjkZatjrbyiJUUKt4NfN0LG8oNhAx8MP7l7ZanBB0jGPVgC4zj9DNa8mBAGHj8wL2ocaXrCdDWEmM49bE+i5sHvrSByhQJPtYsetko7IychApriexTN3YFnOiXTD37lEGJY7FhGzlhho5kdYm6m36pPMBYn197SvLt0VknvbS+fZTib6vO70PgYu34YXj73qzdqHhIYMZ88qWj4yMZqqM9LGzWIF6gfVgYoJyqQ7eyyTZ9zXWyqzy+xiyHZXXvkw16yfiPZtD4T0vkNvjfegNvJjXMZT67cVqb3mEPRkJ/nE2/S58JKO7bWXwmfwFvlM2ZzWSq1tpa4sZssnv4hAgd8an9emVN7Q/DDAPQ2wNVRyXNort7GAd9gVx8LzggOnz2bK2d3KobymUSB9+YX1PMA9/aYo5OlGongGDI9woR0duBzjZAriQiGo5MCDUYMhmrm2FMY3eFq8utVGmrwVFkz0k7Dok6wbD/f+CpJ51e2GnCZopc4zQ/9Y/X2dH8/f+uu/7cft7w0fxjT178=);strokeColor=none;spacingTop=-3;spacingBottom=-3;spacingLeft=-3;spacingRight=-3;points=[];labelBackgroundColor=none;rounded=0;html=1;whiteSpace=wrap;" parent="0SuDh5b31dQOesD8BtSc-173" vertex="1">
          <mxGeometry x="45.82352941176471" y="42.25" width="38" height="36.83333333333333" as="geometry" />
        </mxCell>
        <mxCell id="0SuDh5b31dQOesD8BtSc-183" style="vsdxID=134;fillColor=#2d5967;gradientColor=none;shape=stencil(lZLdDsIgDIWfhlsCdNnc9ZzvsWRMiAgLw7+3F2yMskQy707L16btgUC3qGGWRLAleHeSNz0GRWBPhNBWSa9DVAR6At3kvDx6d7EjxvOQyKTO7po63LGOM5ZqBHtgXHNavRIHpI22BRp2VPymc5ZtBUVbGiEO2EDGVy2t+dbmDSs1z9n3tptO8d/h1nQUH4cmbQwa/P2+djSm8DdA/wQ=);strokeColor=none;spacingTop=-3;spacingBottom=-3;spacingLeft=-3;spacingRight=-3;points=[];labelBackgroundColor=none;rounded=0;html=1;whiteSpace=wrap;" parent="0SuDh5b31dQOesD8BtSc-173" vertex="1">
          <mxGeometry x="54.76470588235294" y="50.916666666666664" width="8.941176470588236" height="9.75" as="geometry" />
        </mxCell>
        <mxCell id="0SuDh5b31dQOesD8BtSc-184" value="&lt;div style=&quot;font-size: 1px&quot;&gt;&lt;p style=&quot;align:center;margin-left:0;margin-right:0;margin-top:0px;margin-bottom:0px;text-indent:0;valign:middle;direction:ltr;&quot;&gt;&lt;font style=&quot;font-size:16.93px;font-family:Oracle Sans;color:#000000;direction:ltr;letter-spacing:0px;line-height:120%;opacity:1&quot;&gt;Document Analysis Engine&lt;/font&gt;&lt;/p&gt;&lt;/div&gt;" style="verticalAlign=middle;align=center;vsdxID=136;fillColor=none;gradientColor=none;shape=stencil(nZBLDoAgDERP0z3SIyjew0SURgSD+Lu9kMZoXLhwN9O+tukAlrNpJg1SzDH4QW/URgNYgZTkjA4UkwJUgGXng+6DX1zLfmoymdXo17xh5zmRJ6Q42BWCfc2oJfdAr+Yv+AP9Cb7OJ3H/2JG1HNGz/84klThPVCc=);strokeColor=none;spacingTop=-3;spacingBottom=-3;spacingLeft=-3;spacingRight=-3;points=[];labelBackgroundColor=none;rounded=0;html=1;whiteSpace=wrap;" parent="0SuDh5b31dQOesD8BtSc-186" vertex="1">
          <mxGeometry y="81.25" width="119.94" height="43.33" as="geometry" />
        </mxCell>
        <mxCell id="0SuDh5b31dQOesD8BtSc-258" value="Sent for classification" style="edgeStyle=orthogonalEdgeStyle;rounded=0;orthogonalLoop=1;jettySize=auto;html=1;" parent="E3ZB4-CnnIWMfGLpdKub-6" source="0SuDh5b31dQOesD8BtSc-96" edge="1">
          <mxGeometry relative="1" as="geometry">
            <mxPoint x="130" y="160" as="targetPoint" />
          </mxGeometry>
        </mxCell>
        <mxCell id="0SuDh5b31dQOesD8BtSc-259" style="edgeStyle=orthogonalEdgeStyle;rounded=0;orthogonalLoop=1;jettySize=auto;html=1;exitX=0.5;exitY=1;exitDx=0;exitDy=0;entryX=0.413;entryY=-0.047;entryDx=0;entryDy=0;entryPerimeter=0;" parent="E3ZB4-CnnIWMfGLpdKub-6" source="0SuDh5b31dQOesD8BtSc-116" target="0SuDh5b31dQOesD8BtSc-121" edge="1">
          <mxGeometry relative="1" as="geometry" />
        </mxCell>
        <mxCell id="0SuDh5b31dQOesD8BtSc-260" style="edgeStyle=orthogonalEdgeStyle;rounded=0;orthogonalLoop=1;jettySize=auto;html=1;exitX=0.5;exitY=1;exitDx=0;exitDy=0;entryX=0.539;entryY=0.125;entryDx=0;entryDy=0;entryPerimeter=0;" parent="E3ZB4-CnnIWMfGLpdKub-6" source="0SuDh5b31dQOesD8BtSc-116" target="0SuDh5b31dQOesD8BtSc-174" edge="1">
          <mxGeometry relative="1" as="geometry" />
        </mxCell>
        <mxCell id="E3ZB4-CnnIWMfGLpdKub-9" style="edgeStyle=orthogonalEdgeStyle;rounded=0;orthogonalLoop=1;jettySize=auto;html=1;exitX=1;exitY=0.5;exitDx=0;exitDy=0;entryX=-0.004;entryY=0.55;entryDx=0;entryDy=0;entryPerimeter=0;" parent="0SuDh5b31dQOesD8BtSc-278" source="E3ZB4-CnnIWMfGLpdKub-7" target="0SuDh5b31dQOesD8BtSc-7" edge="1">
          <mxGeometry relative="1" as="geometry" />
        </mxCell>
        <mxCell id="E3ZB4-CnnIWMfGLpdKub-7" value="" style="shape=image;html=1;verticalAlign=top;verticalLabelPosition=bottom;labelBackgroundColor=#ffffff;imageAspect=0;aspect=fixed;image=https://cdn2.iconfinder.com/data/icons/boxicons-solid-vol-2/24/bxs-file-jpg-128.png" parent="0SuDh5b31dQOesD8BtSc-278" vertex="1">
          <mxGeometry x="120.25" y="140" width="60" height="60" as="geometry" />
        </mxCell>
        <mxCell id="E3ZB4-CnnIWMfGLpdKub-10" value="" style="edgeStyle=orthogonalEdgeStyle;rounded=0;orthogonalLoop=1;jettySize=auto;html=1;entryX=-0.004;entryY=0.55;entryDx=0;entryDy=0;entryPerimeter=0;" parent="0SuDh5b31dQOesD8BtSc-278" source="E3ZB4-CnnIWMfGLpdKub-8" target="0SuDh5b31dQOesD8BtSc-5" edge="1">
          <mxGeometry relative="1" as="geometry">
            <mxPoint x="260" y="236" as="targetPoint" />
          </mxGeometry>
        </mxCell>
        <mxCell id="E3ZB4-CnnIWMfGLpdKub-8" value="" style="image;aspect=fixed;html=1;points=[];align=center;fontSize=12;image=img/lib/azure2/general/Folder_Blank.svg;" parent="0SuDh5b31dQOesD8BtSc-278" vertex="1">
          <mxGeometry x="123.76" y="287" width="56.24" height="45.65" as="geometry" />
        </mxCell>
        <mxCell id="E3ZB4-CnnIWMfGLpdKub-25" value="" style="group" parent="0SuDh5b31dQOesD8BtSc-278" vertex="1" connectable="0">
          <mxGeometry x="873.5" y="108.5" width="230" height="220" as="geometry" />
        </mxCell>
        <mxCell id="E3ZB4-CnnIWMfGLpdKub-26" style="vsdxID=4;fillColor=none;gradientColor=none;strokeColor=none;spacingTop=-3;spacingBottom=-3;spacingLeft=-3;spacingRight=-3;points=[];labelBackgroundColor=none;rounded=0;html=1;whiteSpace=wrap;" parent="E3ZB4-CnnIWMfGLpdKub-25" vertex="1">
          <mxGeometry width="230" height="165" as="geometry" />
        </mxCell>
        <mxCell id="E3ZB4-CnnIWMfGLpdKub-27" style="vsdxID=6;fillColor=#FFFFFF;gradientColor=none;shape=stencil(pVjbUtwwDP2afdXYlq/PtP0Ppixlp5RlFmjp31dp4puctRN4W4yUY1vS0ZEPePPycPt8PCjx8no5/zz+Od29Phzwy0Gp09PD8XJ6pV8H/HrAm/vz5fjjcn57upv/fr6dLKdfv86/py+8z37GgMPJS4m/84oC9P8Xvs32398us4Oc/28RrF48JHMR72pecQKMWYziEli1GOGyokHKxWhZkgaC6aE7A7IGlz6uJHAL1tfgMoCzDN2DNzW6EqB0D91LUMjOLuKOE75H0DW8khBkDe8NGMfgMS5dgQ8avK3hUYBjxw8ehKrxtYkHS/hBgQ81vrEQSvjH01ORKeSgosNiH29+1Z6ii/JT9p4i1HGg7Tq1y8HlfEtnqpOdOfh8R5scrMo5lUK2JN5WB9qk3rWlvgMGQNzlYFI1f9ihf+iVLfWvVROb7AocOYRduUSlh7tyqXWgyCynWncA6fbZI7M3sdKvsIOCwMhBW9DIuDEX2bKCPhFR5AapQcQALUuoY/VfQSfm9oyZETkzS8qkwOAL/sRkZRg1KT+gRuoCxtfw05XrGn9awhpfRtJL8HRHwtfwcnR6FUCZGl42p0cJmhGzVE1XpFtz7PTZ6go8RQcDgy++rJKV431xBb8o5834RTPr4FMGuy34we3Fd+D49a/gBzA8+hIsS36dO2rCH+kCrcGy2is67oJlRI1dqKbYgAsxhsxovRsM1dtI7YnusQJoVtOiPpMmqcNSKqc9pmtHdqpRNU+cxDRmIeBUCjoyjZkD1U2nUTjLRJXtl3M6G57Oq/hc543xNQQ/xi+KvoO/QidD/FbmruBTFFPSZ3xO5sqCaulEdvFJUzflzDQ20TbLO9LYkjE59STLSlnxrrvSx3jOI0t66gaa8chE7cjAEYSuwXE0WxXlmZmNNzGRA5rlvWNFR+GqsRv5UDNJ5KZN2qQ2tqL75Ub4jOwloP6cgw8gzB6HkMK3UewNHNBmLbbNoajlpHB9T0MjsB3x4XFkbxgJjOwd68EDeylEx5qmeL/DPGTZtsGcstdtt6YRzJod5jrpio+ZDy5yxaEfqRUH7I4ulnq25g49ewG+vs+QVNP6JI98+ho5mGao3etAJa86jxetw4BUaAP77DEPDVsdbO1gSJ52EoOGajWYIJteJiJTR0FnklxLr0U2Z0PspGkj+bXKAkZCi52Uh6h5LNN52EuNvQb3MudubK5p7s4vdYnOs4RgT0nNM6FLuj4pCNcMBM7mJ62sK/hAQLljuYLqv1EWU2Zu7GwYtK2IEDXuyjTQI72+tKcf+Qn4/vT4OL8gl//nT8a0ND8349d/);strokeColor=none;spacingTop=-3;spacingBottom=-3;spacingLeft=-3;spacingRight=-3;points=[];labelBackgroundColor=none;rounded=0;html=1;whiteSpace=wrap;" parent="E3ZB4-CnnIWMfGLpdKub-26" vertex="1">
          <mxGeometry width="230" height="165" as="geometry" />
        </mxCell>
        <mxCell id="E3ZB4-CnnIWMfGLpdKub-28" style="vsdxID=7;fillColor=#2e5967;gradientColor=none;shape=stencil(pZbbboMwDIafJrcWceKEXHfde1QqHWgMKspObz8YQisHOXNzF+D70G+ThChzuJWna6Ewu/Vd+1p8Vue+VOZJIVZNWXRVP4yUOSpzuLRd8dK17815ur6eRnIcvbUf4xu+Ji8bDcy+p6ucQOvfO88TXFfNHWwskIg34HEhBA02MMLwWMKjAbcSCLyVCDrLBHlY2gXw/v+490CYgkdq3caJdNM5wFwkkGw+zPU9iDPNeRCMBIjAy5Vkh16J2m0RUNQ+8uBlQg5kRJHENcSFZZe2JQAxFYRtj4S80/Ok3l9VAaxLFGju8r6gwetEgY/kcLVLiXk+EFlwlCjwiSyBSRX4SMaD6KtteT7QMC8xJAp8IsyARJ9tR+Aj5RBE827D82tTuPSjeGRjGX9/zM61s1NIBe9Ae0EBUj4SKM4Pg79z36Wq6+nYeP98fU4cbk1nTHP8AQ==);strokeColor=none;spacingTop=-3;spacingBottom=-3;spacingLeft=-3;spacingRight=-3;points=[];labelBackgroundColor=none;rounded=0;html=1;whiteSpace=wrap;" parent="E3ZB4-CnnIWMfGLpdKub-26" vertex="1">
          <mxGeometry x="52.873563218390814" y="68.75" width="116.32183908045974" height="91.66666666666666" as="geometry" />
        </mxCell>
        <mxCell id="E3ZB4-CnnIWMfGLpdKub-29" style="vsdxID=9;fillColor=#2d5967;gradientColor=none;shape=stencil(UzV2Ls5ILEhVNTIoLinKz04tz0wpyVA1dlE1MsrMy0gtyiwBslSNXVWNndPyi1LTi/JL81Ig/IJEkEoQKze/DGRCBUSfAUiHkUElMs8NojAnMw+nQnMLPSMzYhUbGuAxFyZJlmICzkBXTrT3yFMIZCCCOS0zJwcSS8jy6NECFIJEqbErAA==);strokeColor=none;spacingTop=-3;spacingBottom=-3;spacingLeft=-3;spacingRight=-3;points=[];labelBackgroundColor=none;rounded=0;html=1;whiteSpace=wrap;" parent="E3ZB4-CnnIWMfGLpdKub-26" vertex="1">
          <mxGeometry x="74.02298850574712" y="109.99999999999997" width="7.931034482758619" height="16.041666666666668" as="geometry" />
        </mxCell>
        <mxCell id="E3ZB4-CnnIWMfGLpdKub-30" style="vsdxID=10;fillColor=#2d5967;gradientColor=none;shape=stencil(UzV2Ls5ILEhVNTIoLinKz04tz0wpyVA1dlE1MsrMy0gtyiwBslSNXVWNndPyi1LTi/JL81Ig/IJEkEoQKze/DGRCBUSfAUiHkUElMs8NojAnMw+nQgsTPQtTYhUbGuAxFyZJlmICzkBXTrT3yFMIZCCCOS0zJwcSS8jy6NECFIJEqbErAA==);strokeColor=none;spacingTop=-3;spacingBottom=-3;spacingLeft=-3;spacingRight=-3;points=[];labelBackgroundColor=none;rounded=0;html=1;whiteSpace=wrap;" parent="E3ZB4-CnnIWMfGLpdKub-26" vertex="1">
          <mxGeometry x="95.17241379310346" y="103.12499999999997" width="7.931034482758619" height="25.208333333333332" as="geometry" />
        </mxCell>
        <mxCell id="E3ZB4-CnnIWMfGLpdKub-31" style="vsdxID=11;fillColor=#2d5967;gradientColor=none;shape=stencil(UzV2Ls5ILEhVNTIoLinKz04tz0wpyVA1dlE1MsrMy0gtyiwBslSNXVWNndPyi1LTi/JL81Ig/IJEkEoQKze/DGRCBUSfAUiHkUElMs8NojAnMw+nQgtLPWMzYhUbGuAxFyZJlmICzkBXTrT3yFMIZCCCOS0zJwcSS8jy6NECFIJEqbErAA==);strokeColor=none;spacingTop=-3;spacingBottom=-3;spacingLeft=-3;spacingRight=-3;points=[];labelBackgroundColor=none;rounded=0;html=1;whiteSpace=wrap;" parent="E3ZB4-CnnIWMfGLpdKub-26" vertex="1">
          <mxGeometry x="116.32183908045974" y="91.66666666666666" width="7.931034482758619" height="36.66666666666666" as="geometry" />
        </mxCell>
        <mxCell id="E3ZB4-CnnIWMfGLpdKub-32" style="vsdxID=12;fillColor=#2d5967;gradientColor=none;shape=stencil(UzV2Ls5ILEhVNTIoLinKz04tz0wpyVA1dlE1MsrMy0gtyiwBslSNXVWNndPyi1LTi/JL81Ig/IJEkEoQKze/DGRCBUSfAUiHkUElMs8NojAnMw+nQktDPTNi1Roa4DEWJkmWYvyuQFdNtOfIUwhkIAI5LTMnBxJHyPLokQIUgkSosSsA);strokeColor=none;spacingTop=-3;spacingBottom=-3;spacingLeft=-3;spacingRight=-3;points=[];labelBackgroundColor=none;rounded=0;html=1;whiteSpace=wrap;" parent="E3ZB4-CnnIWMfGLpdKub-26" vertex="1">
          <mxGeometry x="137.47126436781613" y="82.5" width="7.931034482758619" height="45.83333333333333" as="geometry" />
        </mxCell>
        <mxCell id="sll9mkftXWfH9DcQ6YXB-10" value="&lt;div style=&quot;font-size: 1px&quot;&gt;&lt;p style=&quot;align:center;margin-left:0;margin-right:0;margin-top:0px;margin-bottom:0px;text-indent:0;valign:middle;direction:ltr;&quot;&gt;&lt;font style=&quot;font-size:16.93px;font-family:Oracle Sans;color:#000000;direction:ltr;letter-spacing:0px;line-height:120%;opacity:1&quot;&gt;Document Analysis NLP Engine&lt;/font&gt;&lt;/p&gt;&lt;/div&gt;" style="verticalAlign=middle;align=center;vsdxID=62;fillColor=none;gradientColor=none;shape=stencil(nZBLDoAgDERP0z3SIyjew0SURgSD+Lu9kMZoXLhwN9O+tukAlrNpJg1SzDH4QW/URgNYgZTkjA4UkwJUgGXng+6DX1zLfmoymdXo17xh5zmRJ6Q42BWCfc2oJfdAr+Yv+AP9Cb7OJ3H/2JG1HNGz/84klThPVCc=);strokeColor=none;spacingTop=-3;spacingBottom=-3;spacingLeft=-3;spacingRight=-3;points=[];labelBackgroundColor=none;rounded=0;html=1;whiteSpace=wrap;" vertex="1" parent="E3ZB4-CnnIWMfGLpdKub-25">
          <mxGeometry x="50" y="181.49999999999997" width="130" height="29.36" as="geometry" />
        </mxCell>
        <mxCell id="E3ZB4-CnnIWMfGLpdKub-5" value="" style="group;rotation=90;" parent="0SuDh5b31dQOesD8BtSc-278" vertex="1" connectable="0">
          <mxGeometry x="583.4970588235294" y="770" width="197.85000000000002" height="300" as="geometry" />
        </mxCell>
        <mxCell id="0SuDh5b31dQOesD8BtSc-112" value="" style="group;rotation=90;" parent="E3ZB4-CnnIWMfGLpdKub-5" vertex="1" connectable="0">
          <mxGeometry x="55" y="85" width="142.85000000000002" height="167.99999999999994" as="geometry" />
        </mxCell>
        <mxCell id="0SuDh5b31dQOesD8BtSc-107" style="vsdxID=154;fillColor=none;gradientColor=none;strokeColor=none;spacingTop=-3;spacingBottom=-3;spacingLeft=-3;spacingRight=-3;points=[];labelBackgroundColor=none;rounded=0;html=1;whiteSpace=wrap;rotation=0;" parent="0SuDh5b31dQOesD8BtSc-112" vertex="1">
          <mxGeometry x="37" y="24" width="94.54545454545455" height="100.8" as="geometry" />
        </mxCell>
        <mxCell id="0SuDh5b31dQOesD8BtSc-108" style="vsdxID=155;fillColor=#FFFFFF;gradientColor=none;shape=stencil(lVfbUhsxDP2avGp8vzxT+h9MCSVTSpgQWvj7arvri86y3uFt48g+knx0JB/szevj3cvxYNTr9XL+dfx7ur8+Huy3gzGn58fj5XTlr4O9Pdibh/Pl+PNyfnu+n3+/3E2W09fv85/phPd5n1fkpk1GfcwLWqn/v7/P1j/eLrO5nv92kXRYNmi5Q72bxcZSLocuSzlRTIuVXaw0xbhYLUs5UDIjdJtJJYmeHdkk8W0ipQFfk5HwbGSShE+xOLnAP52eu1QZRcaIXMVELo381ewJZCup6snim/YE3iZNDtzVhrQFd6vVBnqiDNjduQuUpxAAXK1SRV5LaA7cuGHgq3uKgZST2EoCR0vWS2QFsGonYiUxQyz305JNFqgZHHm/F3Aw5POwLih5AGeoKMEDuQjgioKT4EyZLMF9JoEtadnZ18JSQ1Z2bhTvVQmvFXELqJRVpqD3EsVlZYeJWjPDBtIADsywjDMkhmX/wxeIYSIFi8Sofi0rnIKQMV7jJLIx5IbxdgVWwNlZqIRU3SngOpNFCdCUgkRvVlvZ5mu0Er4/uYBF8gaCZxWA4HljAMXkrEWRd0nNXoirjJmxwscVOROt9T2BYnKWIVtcBV46a0kPy6JvW4U2lAHbcYvKEltJYO6oqNTDjupt1YkPydaq0YFAo3XtRBWVG+wX42WBcqBZXRqLQBmCssgrYrCNQWIainqgWYpUgS51NHI1MYKWrvYELVXEjRT09ZMy4i6fYO7YLSMeHwD+kyqaJhHoLX2ptxnHgb7vaghPT9lA+J04lVgVyCarnIWhq9k05dxREAXayWJsPESeVlNEL+rbkXMl6+EckX2dWCp+Jo2Z5/4A+skdzWLmW0P+aCKhBhNfv6O24jBsNL0rpc5YEDBhvi7VSUC3sLYTxqWmh/BrpvB8g60OiRICZRR7JErgIcR+iSjR1H41IEr0FPeJEmORt63AHSlQ0cgeY971atRWJayRQDSrLYFyrYPr9cltrg+gpr2Tti6t5+1tkjJxshwAOQA1rKppmgVvM4/WcFkTI6HVMbsTXJavb6D+GWeH2eoaWuNthE7LfTGAnLaXZuu1MI/B81Wmau+xyx/tnfxwenqan9n9//iu5qX5TW5v/wE=);strokeColor=none;spacingTop=-3;spacingBottom=-3;spacingLeft=-3;spacingRight=-3;points=[];labelBackgroundColor=none;rounded=0;html=1;whiteSpace=wrap;rotation=0;" parent="0SuDh5b31dQOesD8BtSc-107" vertex="1">
          <mxGeometry x="1" y="2" width="89.6969696969697" height="98.39999999999999" as="geometry" />
        </mxCell>
        <mxCell id="0SuDh5b31dQOesD8BtSc-109" style="vsdxID=156;fillColor=#FFFFFF;gradientColor=none;shape=stencil(lVnLchw3DPyavbL4fpwd5z9csRypokguWU6kvw82OyQwjRlSvsk0OU0AjQbAvYRPP+6/fL+7ePvj9eX5r7t/H76+3l/CbxfvH57u714eXumvS/h8CZ++Pb/c/fny/PPp6+3f379cd17/+vv5n+sX3m7nYjO1XE95+35b8SbU/xd+v+3/4+fL7YC7/X/yJubthIMj9s1vm5IJ255tJZiwrbyFbU8xoUP3JePDFLuZlvbYxeQ9dLam1T22oyUAp13e7cFdND5J9MeHJ+Gp0oyte0/FxXWrNbWCqzz7YbtdDezQbck79uh2u5qNTfsL864z/GpyAHynYtWcieAwecsNrAWTIuCv7G/JZA/42Tiwv2WTE+BXkwBebNqWgjPOT+HFmW0pBFMQXlyyc5UuubR+7voGdodmIgJb49oeOFod96qyhHbVfE5UeWKQvbrpba2J4KnsjEeigJtoS8lLP+Vg3NxVmiU5jVybsCSXkTgTmhRrbPlFmhRvMuJrmhS65dr+kk3LU3yRfx2/9gizStASsIUUqQJPD1SCd52pRFCCLr/c8S1ride3DGMpIf7KfjrjG+BnU/weX+7yelfQuxg/tvNskSVl+NBPdYXSqeP2C9dmAjiMPpzhws2PYiuKIJQhIpqdxotqq417eKJwQ3ivqkorKl5U/jPiF1AXxI/kduCr/HKXsqjUTd6y4/uu4R+3n6S0AF+kY7uGjxLS4SlGCaoKfaqL3DtnUJyIq7dDGd4Hv/b3VQeixwP7PgMNdCTgEGDitUt7A10a6isEAfzrvGng37HpDN1qdP5uR+o5JcXAgXfTKHkiF+emB1UKSjQJpNiPlQHuTIPEEpt6IWpmymtxoid6Hq3koJWqAjmOFGLDM2J7U6Zez8MAUYATaCBRGiSYpCiB4TJ+3OyGXaO2p6g8gX3IWc3gm3BWogQJm/zY1EXh3FdzZM2QkFTya4ZQ4xcBWTMkjH79wxQhT3hUHkURMrIuzaZzrc3AiynQphwMEzKW58PEgSwshwnSm+QAXw8TpF12PUyQKLq8MH/PUanUG1LoZeiMKVwBWNp6SX5jRmJO0ViKVVJXqdWkSuUvgooGFaxYuJIP5mKs5IQeYNOhq9Yj/eoJwE4ty0OXumUWzAoc3U4LlfckMQkoEPrKWUBLp8hATqZFCCh1J3tsYg7EU+zhhEgT9ukifrUoTtNFF3HXVFd7UMTRUQe56qY60dixDj45hBkFyqr4BH666Kzzvdacmaz6eB9VfCwgl9HMdWS7h12O+XaPGaJBJ6vJgZjkl/aSNOSpvXFUvI5NpM4AnlUbHp2q2ULaWXLsjl/wGMUHtkSoi8tyzPktDcVbGMT9hVv5iRoVO+9nFS9yGPl0wgtqvTw4CXixaueAFgcjveYFTfSlrOzlTvfU1ThP0/CMvZzI0t7dud4jcu6TkoJS8a4zb9M8AqGWX+Y6XRHfquccodtifAgTYoYx7Y9xuvTnlTNZF0f4Parpec5DrWxRvb9cn8ZALGnqjFOlpnIVIY9bVe8fsuyNXsvu0ZMdj5tDqu20mCZuS7lJgXKasqloeVUvP5TOMf6i5TSVWLRc+LSnYhh6NfAtvs/SpgCOp8C7nSSBhImnokGt+UOVfk6XnOXn9AKBOsgsGvMrhGqZWfLB9jyz5BMgZ9ZIf44NUmWpKxT1AuGSgoWsHKLGDcRbwD0fFFM+wKNxQsPF9Zg6cW34soAQKSuMm0R3fHE6cDztchHwKWKQJ1Q742Q8lidOirO6cOBppauMU+2/NOv8B4ADh/EY/XGmkMp2ZTxlCg3J+IyimEIzcp43vkgValYSvF0dUIWaj1iWllMPaueWCxKct93y9w4uiAmm1AON4F3nj+kNIi+/zIIETKVLemCq/MGR5+bJlCI1ePsqjjWqAghtH+ODhdtSmfBQAJLBd2xdfsIiVFTXEtY+g6MKFUgs+1B0D+Zje+6jxbBLf/Av5d8eHh9vP7TL/8df1mnp9qt8+Pwf);strokeColor=none;spacingTop=-3;spacingBottom=-3;spacingLeft=-3;spacingRight=-3;points=[];labelBackgroundColor=none;rounded=0;html=1;whiteSpace=wrap;rotation=0;" parent="0SuDh5b31dQOesD8BtSc-107" vertex="1">
          <mxGeometry width="94.54545454545455" height="100.8" as="geometry" />
        </mxCell>
        <mxCell id="0SuDh5b31dQOesD8BtSc-110" style="vsdxID=157;fillColor=#2d5967;gradientColor=none;shape=stencil(lVvZkh01DP2aeXW1l7bdzwH+g4KETBESagiQ/D26TFtSH3npeZvcyFeLtRxJvk/x3V8ff/7z/VPY/vr68uX39/8+//r141P84SmE588f3788f6W/nuKPT/Hdhy8v7397+fL3519f//3nzw/Kx19/fPnn8Q3fXs8dmzv2x6mwfX/9JHsXj/8/+en1wKfnz9MDaXP75cAvf7+8svDnkeh8O+L5jH/95Fs4iXa3lZPo/CgezjeqeFJll+JJdX4Ui8thyr66HK/s4+5yAv6HKxH4k9wF+Cuqxn9zaZ/yV2fOj0JxJQB/JeX5Udhd2Jf6h+hCmfIPbgPz+8NFsH8lZlf2mujkVTdXV+yv7pLpRPve82uji1N5yQHb5bC8G3tQk5e+eN+vApNt0lXevQj3dl3uyDPuexQLnx9tV84pu71eOW9Xtim4N3IlV09wR0qb5o/VxXxlfLgMHvIImnpl7oOrkyvy1R3+ckUk7u5n4vrkdjASeUu9iktxCWZSNGyXcBh/KlNTeU4KHE27A+fYIJCKOyCQtytXCuI8zWHblSWlhgQBrORq97W7eqz0pfRVp+GQXM7AXOVFdv0IzFWGbcHrAsQu0cRL6ro6hjrAkenTNHRFDBXMEeJHFGrSBxeXjpGjy3OnNI6R6QIghsAzMoVUeJp5RvFum+oMnlHYfyeeUbILaaVwIftPC9vuUgXmBxdnzutyie0TquDAnPLrka/chWpkblIU7K2/uemehSpYIRt/lYKa9hyz/aRFMdDsxQdKGB/QefGUtjo/tW+0wOEgcIRZ+eBazlmZ0mO+amhLwlHcFqeBnzgqvguU2CDyU3EeLthvUI/2rcWt1ISTZuRaVDKAt3zryWaX9MaKK/ka7+q2442aa9DgrUlb7Hp3oOE9M2v8HzkLPBszLmQ9AhbNWAPPQnn1EY/uK5GowFOwVGOItUwENbLZVShCfSKAVwAwVc9BxOyrKwXsxVQjgOkdYBf9xSom4LaUjAJvC+aBlfKHyh3N+Cq9Ykyw6VWejkhzN/fLiea5qp4EK1/zXFWXxppTwatTJEQmLQfwV5W08VehLJFTod7qtk4i522NoDlwbTUpE+RrYJHf5jkYV4hXfB2Rl04xgamwdev0AjW0DDLiLyBcuXYGC+9d184QWZRSM2YibB2vFtYn2CXmJYsE9mCwzOhfBKZuAyGYwmmRDyYABXRw4hGUzSrIyzYfyEtHAsp7cGP3TeDSARdMoblDCGn27aPYbqZv4LVHvvnA1edV2b/pcklVNW+dOTBVhKAWSQR02NoXWzLq6kdQNV9juqzasRAEiHm+mwIhoqkC3zPkIM09DhwIQJ1yDPbQPJ3GUM8TylVeyVti38gZWjUpGcpVUi2uBM0MXOgTUARH8qqyLbU9r+WlRIXjEAtCjTuCuEv3vbq7V8MTNvd8OOh3Nut4OOiLGfYQ7I5Yv20XseyudR/h+QxfdLBUwVJFpsKESVRnnPb9V9XmU/fUWuhRU+IZ23xXLgL+EA5O+jwQKFylOOAqYyAeCRww+oEEUbjDawG3uUkJIw4JAtS3T0YJhSL4qt9jJAf5L24MnJt++45okqyL9Su38Ls5CVtiMN8pYBaDkZNHHFbagqujR3UvaSLwOt7efAAKmCo0rPFWZyZJKo2LlSJOgWz35gWhjTMW3dE2n5epVChBjpAi2W4obA4upJPfiahM7Gvz+3q+Z+WNPJkQeVXZGmdAXQ8FA2wTgYO6hvM7GG2MK36CChptv6epJCkFmA50Sj6lmBAnFl475JsPQJ9SzMpi5XO6A/HWmaVPwfn9o7Bhn6KoIlPFiUks7iYbpmmMakQteTfBhKWDu6NFFcR+x50Y+hAshdS8YuCldiQEHqecv5lXNWuyMeFAkjasQkybEDVtGBTpwPOekT+ojtDzmbiUt7Ny67Stxh1B3rX/Xh0+qwyEFfcNfSY1s5Czkhl8KyJJWQlmk0vuUZVTGVgmKLrRtuUCPoQ/NTjAHhCN4W4vV1CTcLclP1WDwDraC04bz4Vx0SFFXHuXh2SjqaK9+rv8cxIM6K1mMuMqyF9ZqfFXu9Sb5s927aGvNbCQuGXSLjJW3zifSV2rWLkGl57n3sSU+ojHM3qcvGOLqqjG42TDHzQsnDO/sysd83m9OuLxjFxJcSCvJoqGaITZDfejrROE+47T77Lx2JC5q7ZCBr47dJCmX4HaG9yWr9aaNkSaA0bFqFYr0Vu8FRtvygoK42K8G/OahnO1DTEt7Q337bTUnW1Ip6WuZoK1xNO1A0/twrwmM0DrbMyzWcou+it94rQ4DsU7yxsT7XZpXjsDNDuQenu030hPkM8SwulAUTx3iOwqlOuQuP3iPQW5OaAFTdX2FBa+LfkfUYYF8gAL13OdBZWGxNFS3X07cljAEANvo5l/NCMN/cpkrD/hkTRNIIeXnZ4gKHz/tpk9MoETD2itqnlO5K+qcwe3169fxsh6EvtFJWS0zndX+14+oMjB5awdRwT7ToFidYfeLCyXwza+pT3T+QixsjTCM/2N90N8r8MVBj5qMHLWn+aqIzzKG1qpT+YZyi47Ac63xrzUNgWYBqyYdxoRGeLNOi0182/cd37bwZ3W6q3irl6tyrsYhGqdBaFPZnjT0Z6o6hQMa7PK4GED59I3FCxVtDd/l3+SV6PeKiZ9IGJxb5Fqsr7tV+vOpOLR88X6dR9a7a7Mao++B3OlZaDAWImHXw1IreqGOiEzmoC+beeY9lFJZmvfL5r8kGFSsx8vSwGVdGq2nn7fZd9ZC+l8KHN1w7+YLs9n3p/eztpqfKeMj1mtt5dStWWsP1Wt+ZrSq2QgRRMfrXv1QkCKNia2zus+Ke23r1+jgdZUyQuQYGUc+t5SebvyjGq5zY4fUHUFqqIhGqE1GJ4toxRmZ6LdaRP2/9vKdZ6MWuWo0QxL5ZYPlmxK6Ty3sCml80zWXmvGKbVpZMVdGvNsnlMqxxu/lup4tFCNIkrFirffLHU5oPJKyHFEL7XvbQoPHh5MMop+TjHOaMuHGjpXevbVgPxV3g1MhWO7jv5zp9eFQq0gsAUyd6+Jho5nQg4GWssQhUKtXOCUK7YFy30YduQWijMYpqnGQGTJvzMSpkbRrFwVWlJdH7C3MMw8mO2wx98oVHmWrFauoD11hrgD72hfV7Wq04DIO6dZB6KpxiB8yZ/OwOVrxeR5Av6+Tdto3IPU1e/beo8UD265J/sA7SJj9Y3zQcFcRwv84tCs05YlU4+GxtlDzxnG6aPTQi/5VxtendRZbXgRFb6Hr50feuArRcPfvgnU7x9lRIgTFKrbFflb/fPqRYeezUjl3nCCY+1PBRY3Tp0JklCN79/jiHQ3Gy895gpWyvEAbal/Z4CYeaU6GyBqcDUeIBZ8U3JjgEhwcIcM0xkgdh65d/Rf1M8bAQsFVL1lPz9Z7PT0CXn0VTCDR45mtUHCXzDsKllEpBpVEIURvP3m8RxBSxkt1c2VZm+jWwTuByukSIQ9gdWeiUbGlw24N18b7AUFK2G0VAPVoXgsPYX+kJ+uf3j+9On1l+/6//Gn7vTR68/k44//AQ==);strokeColor=none;spacingTop=-3;spacingBottom=-3;spacingLeft=-3;spacingRight=-3;points=[];labelBackgroundColor=none;rounded=0;html=1;whiteSpace=wrap;rotation=0;" parent="0SuDh5b31dQOesD8BtSc-107" vertex="1">
          <mxGeometry x="2" y="1" width="88.48484848484848" height="97.2" as="geometry" />
        </mxCell>
        <mxCell id="0SuDh5b31dQOesD8BtSc-111" value="&lt;div style=&quot;font-size: 1px&quot;&gt;&lt;p style=&quot;align:center;margin-left:0;margin-right:0;margin-top:0px;margin-bottom:0px;text-indent:0;valign:middle;direction:ltr;&quot;&gt;&lt;font style=&quot;font-size:16.93px;font-family:Oracle Sans;color:#000000;direction:ltr;letter-spacing:0px;line-height:120%;opacity:1&quot;&gt;AI Component&lt;/font&gt;&lt;/p&gt;&lt;/div&gt;" style="verticalAlign=middle;align=center;vsdxID=159;fillColor=none;gradientColor=none;shape=stencil(nZBLDoAgDERP0z3SIyjew0SURgSD+Lu9kMZoXLhwN9O+tukAlrNpJg1SzDH4QW/URgNYgZTkjA4UkwJUgGXng+6DX1zLfmoymdXo17xh5zmRJ6Q42BWCfc2oJfdAr+Yv+AP9Cb7OJ3H/2JG1HNGz/84klThPVCc=);strokeColor=none;spacingTop=-3;spacingBottom=-3;spacingLeft=-3;spacingRight=-3;points=[];labelBackgroundColor=none;rounded=0;html=1;whiteSpace=wrap;rotation=0;" parent="0SuDh5b31dQOesD8BtSc-112" vertex="1">
          <mxGeometry x="22.850000000000023" y="124.79999999999995" width="120" height="43.199999999999996" as="geometry" />
        </mxCell>
        <mxCell id="0SuDh5b31dQOesD8BtSc-187" value="" style="shape=waypoint;sketch=0;size=6;pointerEvents=1;points=[];fillColor=#FFFFFF;resizable=0;rotatable=0;perimeter=centerPerimeter;snapToPoint=1;strokeColor=none;gradientColor=none;spacingTop=-3;spacingBottom=-3;spacingLeft=-3;spacingRight=-3;labelBackgroundColor=none;rounded=0;rotation=90;" parent="E3ZB4-CnnIWMfGLpdKub-5" vertex="1">
          <mxGeometry x="70" y="80" width="20" height="20" as="geometry" />
        </mxCell>
        <mxCell id="0SuDh5b31dQOesD8BtSc-274" value="" style="endArrow=open;html=1;startArrow=none;startFill=0;endFill=0;rounded=0;fontFamily=Oracle Sans;fontSize=10.5;fontColor=#312D2A;labelBackgroundColor=none;strokeColor=#312D2A;edgeStyle=orthogonalEdgeStyle;elbow=vertical;strokeWidth=3;shape=link;" parent="E3ZB4-CnnIWMfGLpdKub-5" edge="1">
          <mxGeometry x="171" y="14" width="50" height="50" as="geometry">
            <mxPoint x="200" y="160" as="sourcePoint" />
            <mxPoint x="420.0029411764706" y="80" as="targetPoint" />
            <Array as="points">
              <mxPoint x="420" y="160" />
              <mxPoint x="420" y="80" />
            </Array>
          </mxGeometry>
        </mxCell>
        <mxCell id="0SuDh5b31dQOesD8BtSc-276" value="" style="endArrow=open;html=1;startArrow=none;startFill=0;endFill=0;rounded=0;fontFamily=Oracle Sans;fontSize=10.5;fontColor=#312D2A;labelBackgroundColor=none;strokeColor=#312D2A;elbow=vertical;strokeWidth=3;shape=link;" parent="E3ZB4-CnnIWMfGLpdKub-5" edge="1">
          <mxGeometry x="171" y="14" width="50" height="50" as="geometry">
            <mxPoint x="90.00294117647059" y="160" as="sourcePoint" />
            <mxPoint x="-149.99705882352941" y="80" as="targetPoint" />
            <Array as="points">
              <mxPoint x="-149.99705882352941" y="160" />
              <mxPoint x="-149.99705882352941" y="120" />
            </Array>
          </mxGeometry>
        </mxCell>
        <mxCell id="E3ZB4-CnnIWMfGLpdKub-24" value="" style="group" parent="1" vertex="1" connectable="0">
          <mxGeometry x="1226.5" y="660" width="230" height="110" as="geometry" />
        </mxCell>
        <mxCell id="E3ZB4-CnnIWMfGLpdKub-20" value="" style="group" parent="E3ZB4-CnnIWMfGLpdKub-24" vertex="1" connectable="0">
          <mxGeometry x="13.5" width="203" height="80" as="geometry" />
        </mxCell>
        <mxCell id="E3ZB4-CnnIWMfGLpdKub-21" value="" style="rounded=1;whiteSpace=wrap;html=1;labelBorderColor=default;strokeColor=#2e5967;strokeWidth=4;fillColor=default;" parent="E3ZB4-CnnIWMfGLpdKub-20" vertex="1">
          <mxGeometry x="-21.5" y="-6" width="233" height="75" as="geometry" />
        </mxCell>
        <mxCell id="E3ZB4-CnnIWMfGLpdKub-17" value="" style="dashed=0;outlineConnect=0;html=1;align=center;labelPosition=center;verticalLabelPosition=bottom;verticalAlign=top;shape=mxgraph.weblogos.json" parent="E3ZB4-CnnIWMfGLpdKub-20" vertex="1">
          <mxGeometry width="57.82608695652174" height="63.000000000000036" as="geometry" />
        </mxCell>
        <mxCell id="E3ZB4-CnnIWMfGLpdKub-18" value="" style="dashed=0;outlineConnect=0;html=1;align=center;labelPosition=center;verticalLabelPosition=bottom;verticalAlign=top;shape=mxgraph.weblogos.json" parent="E3ZB4-CnnIWMfGLpdKub-20" vertex="1">
          <mxGeometry x="66.08695652173913" width="57.82608695652174" height="63.000000000000036" as="geometry" />
        </mxCell>
        <mxCell id="E3ZB4-CnnIWMfGLpdKub-19" value="" style="dashed=0;outlineConnect=0;html=1;align=center;labelPosition=center;verticalLabelPosition=bottom;verticalAlign=top;shape=mxgraph.weblogos.json" parent="E3ZB4-CnnIWMfGLpdKub-20" vertex="1">
          <mxGeometry x="132.17391304347825" width="57.82608695652174" height="63.000000000000036" as="geometry" />
        </mxCell>
        <mxCell id="E3ZB4-CnnIWMfGLpdKub-22" value="&lt;span style=&quot;color: rgb(0, 0, 0); font-family: &amp;quot;Oracle Sans&amp;quot;; font-size: 16.93px; font-style: normal; font-variant-ligatures: normal; font-variant-caps: normal; font-weight: 400; letter-spacing: normal; orphans: 2; text-indent: 0px; text-transform: none; widows: 2; word-spacing: 0px; -webkit-text-stroke-width: 0px; background-color: rgb(251, 251, 251); text-decoration-thickness: initial; text-decoration-style: initial; text-decoration-color: initial; float: none; display: inline !important;&quot;&gt;JSON Output Data&lt;/span&gt;" style="text;whiteSpace=wrap;html=1;align=center;" parent="E3ZB4-CnnIWMfGLpdKub-24" vertex="1">
          <mxGeometry y="70" width="230" height="40" as="geometry" />
        </mxCell>
        <mxCell id="0SuDh5b31dQOesD8BtSc-268" value="" style="endArrow=classic;startArrow=classic;html=1;rounded=0;entryX=0.557;entryY=1.104;entryDx=0;entryDy=0;entryPerimeter=0;" parent="1" target="sll9mkftXWfH9DcQ6YXB-7" edge="1">
          <mxGeometry width="50" height="50" relative="1" as="geometry">
            <mxPoint x="1349" y="650" as="sourcePoint" />
            <mxPoint x="1130.4120348429615" y="151.32000000000016" as="targetPoint" />
          </mxGeometry>
        </mxCell>
        <mxCell id="sll9mkftXWfH9DcQ6YXB-1" style="edgeStyle=orthogonalEdgeStyle;rounded=0;orthogonalLoop=1;jettySize=auto;html=1;exitX=1;exitY=0.5;exitDx=0;exitDy=0;entryX=0;entryY=0.5;entryDx=0;entryDy=0;" edge="1" parent="1" source="E3ZB4-CnnIWMfGLpdKub-14" target="E3ZB4-CnnIWMfGLpdKub-21">
          <mxGeometry relative="1" as="geometry" />
        </mxCell>
        <mxCell id="sll9mkftXWfH9DcQ6YXB-2" value="" style="group" vertex="1" connectable="0" parent="1">
          <mxGeometry x="1280.89" y="310" width="121.23" height="158.5" as="geometry" />
        </mxCell>
        <mxCell id="sll9mkftXWfH9DcQ6YXB-3" style="vsdxID=13;fillColor=none;gradientColor=none;strokeColor=none;spacingTop=-3;spacingBottom=-3;spacingLeft=-3;spacingRight=-3;points=[];labelBackgroundColor=none;rounded=0;html=1;whiteSpace=wrap;" vertex="1" parent="sll9mkftXWfH9DcQ6YXB-2">
          <mxGeometry x="5.783132530120484" width="115.44686746987952" height="149.90137499999997" as="geometry" />
        </mxCell>
        <mxCell id="sll9mkftXWfH9DcQ6YXB-4" style="vsdxID=14;fillColor=#FFFFFF;gradientColor=none;shape=stencil(hZNNEoIwDIVP020nbYSha3/uwShIRwSnguLtBVtpU0V3Tfoe+ZIGhutrlV8KJuHamfZU3PWhqxhumJS6qQqju/HEcMtwXbamOJq2bw42vuSTcjqd29v0hcH6VoorNbkkPGxGALzinZXve2P1whlWPMucQVAHDNImXPhwoVI8RadAqnBhlvJEhVVr3QSQQAGRZ78IgdIBR0XxwhYo8RsvnAohXiiZJBxUVJbWnGc0V/RYGEvwe6N0KF6+MMMY0hvE57vIuREhKah/3eXhRDtDQf+u2Hjw61nqurbbHd7H6zym7K+A2yc=);strokeColor=none;spacingTop=-3;spacingBottom=-3;spacingLeft=-3;spacingRight=-3;points=[];labelBackgroundColor=none;rounded=0;html=1;whiteSpace=wrap;" vertex="1" parent="sll9mkftXWfH9DcQ6YXB-3">
          <mxGeometry x="1.445783132530121" y="1.2286821705426354" width="105.54216867469881" height="100.75193798449611" as="geometry" />
        </mxCell>
        <mxCell id="sll9mkftXWfH9DcQ6YXB-5" style="vsdxID=15;fillColor=#FFFFFF;gradientColor=none;shape=stencil(lVTRcoMgEPwaXpmDQ5TnNPmPTGOqU6sZY9r076sF5cAhJm+47HJ7xwrD3bU6Xkom4Tr03Wf5U5+GiuEbk7Juq7Kvh3HFcM9wd+768qPvbu3Jfl+OE3NafXXf0wl3q1OGGzOpJPxaRHIs/oGD5b/feisQdl9rrnKnEJEE7tIiJueoHMlBipvMkXBNcpBQXOe0elO3xC1VWKTIeC4e2aWSGcq4VKHfsSnUod9RqGVomA4LY1aiPiLXIqpPTpbzBHVcnpjEFQkT3YfjIoLEeGO3RCFW1yZ9R9HdkgCkRxUHK/S6HcSt4MKjxpTwpgXlL21B2BLMk11aAvZKVIG9FFMIvRmz5HH2RztwkABgW1OfOYm6WbH6PfypcZklm6O7aDie81w0Pf/JZHqBWF2QXHpRJnS6PR9Ie9yI2Ljwr+q5bhr7KNP9+BUeIfuC4/4P);strokeColor=none;spacingTop=-3;spacingBottom=-3;spacingLeft=-3;spacingRight=-3;points=[];labelBackgroundColor=none;rounded=0;html=1;whiteSpace=wrap;" vertex="1" parent="sll9mkftXWfH9DcQ6YXB-3">
          <mxGeometry width="108.43373493975905" height="103.20930232558139" as="geometry" />
        </mxCell>
        <mxCell id="sll9mkftXWfH9DcQ6YXB-6" style="vsdxID=16;fillColor=#2d5967;gradientColor=none;shape=stencil(lVjLctswDPwaXzkkwec5Tf4j0zi1p26ccZI2/fuClUgRIEVFN1sGscACC1A+wN3b6fH1eNDy7f12/Xn8c356Px3g20Hr88vpeDu/46cD3B/g7vl6O/64XT9enqbvr4/JMn36df2dPHxO55SU6YyWf+fvWsT/Dx4m6+8ft8lccfv5gRZ+evCppwfOCzObzE/mE58wfTVRxDhbQG2xAgla2EBBJYWUFG8JCejv0M/xcn6pGKF8BC/sKDjGRszmJTaM3msaX+FwwEi2WYFFkrWj0ItXDpNxq+CAm0A/XUrNVrPss6aNGI2AQOzdRivWJzItIIDxH7XQgfLgrHCUh6CFs5QJZNj5EbxXIioGH4VXTA1SREfhvcyeRw2AVhaGsggisvSTZ0fxtV+sdInSRdYH2E6qzV8P829Uibxaxr7NThZ0LBEFr2ygVD4M2rA6MNNnxiJVtjCeY0XGgQ0uqEjI4cscyBKtFApouIvVmlpBSEPxa88zWDDCMfw6Sihdn2uc8Xn6lK1tYe213xIudiYM+egoF8+ETeEaJSSjo6NcA0KNO7dVrrFCMeV0lGtc9jxSLvqKw8nRUW7yzCZHR7kpSiaejnIxfzmeXI1yE7GawrfKxbA9F0Mj3VT7HcpVUei90tUmnxlJF7E865WOdBerr0u39rwu3RTltnSb/Le02Ghr9wF2/0PmDDngRRgyolnvIBuRslH3d+5cEVjjdoQznqFcsTnMAsuvWVaEQDFxWHhWgDCcU7ppPsUuWUi4Zbh4z2EyqY1W7qCdEVmOZOhlcy4j0gIDt41IO1lj1YfonkFr2cyHpt9xhGyXGB0NgTujMTk27WiMDF4uVtVoNG3eG5cawwteEbo6GrE0DLydjFsVr06ocoIl7psxo6rKLEmWGZAvk8N7+uYI2GtPR0zqv0js02ofl0ELyfSOgtBszji1WGVF2PJeNOjCWPbo19uw9ry+oeso1zf0dv7Nho64u9i8a9sw5DoP2nD8htcsaHxZkHsXtIesstGC9rbRTLufi9HX13Pld3071yGub+cm+WbZlhN9cjtT3bHX9lSz9pXVspsnll+zeFFWkbGV+ooIET8sf/w8ny+X6X+j+nf+RxE+mv5kgvt/);strokeColor=none;spacingTop=-3;spacingBottom=-3;spacingLeft=-3;spacingRight=-3;points=[];labelBackgroundColor=none;rounded=0;html=1;whiteSpace=wrap;" vertex="1" parent="sll9mkftXWfH9DcQ6YXB-3">
          <mxGeometry x="2.892" width="105.108" height="100.74939285714285" as="geometry" />
        </mxCell>
        <mxCell id="sll9mkftXWfH9DcQ6YXB-7" value="&lt;div style=&quot;font-size: 1px&quot;&gt;&lt;p style=&quot;align:center;margin-left:0;margin-right:0;margin-top:0px;margin-bottom:0px;text-indent:0;valign:middle;direction:ltr;&quot;&gt;&lt;font style=&quot;font-size:16.93px;font-family:Oracle Sans;color:#000000;direction:ltr;letter-spacing:0px;line-height:120%;opacity:1&quot;&gt;Database&lt;br&gt;&lt;/font&gt;&lt;/p&gt;&lt;/div&gt;" style="verticalAlign=middle;align=center;vsdxID=18;fillColor=none;gradientColor=none;shape=stencil(nZBLDoAgDERP0z3SIyjew0SURgSD+Lu9kMZoXLhwN9O+tukAlrNpJg1SzDH4QW/URgNYgZTkjA4UkwJUgGXng+6DX1zLfmoymdXo17xh5zmRJ6Q42BWCfc2oJfdAr+Yv+AP9Cb7OJ3H/2JG1HNGz/84klThPVCc=);strokeColor=none;spacingTop=-3;spacingBottom=-3;spacingLeft=-3;spacingRight=-3;points=[];labelBackgroundColor=none;rounded=0;html=1;whiteSpace=wrap;" vertex="1" parent="sll9mkftXWfH9DcQ6YXB-3">
          <mxGeometry x="-4.553132530120497" y="100.75408817829455" width="120.00000000000001" height="49.14728682170543" as="geometry" />
        </mxCell>
        <mxCell id="sll9mkftXWfH9DcQ6YXB-9" value="" style="endArrow=classic;startArrow=classic;html=1;rounded=0;exitX=0.404;exitY=-0.03;exitDx=0;exitDy=0;exitPerimeter=0;entryX=0.752;entryY=0.742;entryDx=0;entryDy=0;entryPerimeter=0;" edge="1" parent="1" source="sll9mkftXWfH9DcQ6YXB-6" target="E3ZB4-CnnIWMfGLpdKub-27">
          <mxGeometry width="50" height="50" relative="1" as="geometry">
            <mxPoint x="1260" y="270" as="sourcePoint" />
            <mxPoint x="1310" y="220" as="targetPoint" />
          </mxGeometry>
        </mxCell>
      </root>
    </mxGraphModel>
  </diagram>
</mxfile>
